{
.appVersion = "3260";
.formatVersion = 3;
DisplayStrings = (
"ABCDEFGHIJKLMNOPQRSTUVWXYZ



",
E
);
axes = (
{
name = Make;
tag = MAKE;
}
);
date = "2024-10-27 18:31:07 +0000";
familyName = Construct;
fontMaster = (
{
axesValues = (
0
);
customParameters = (
{
name = "Master Icon Glyph Name";
value = A;
}
);
id = m01;
metricValues = (
{
over = 16;
pos = 800;
},
{
over = 16;
pos = 700;
},
{
over = 16;
pos = 500;
},
{
over = -16;
},
{
over = -16;
pos = -400;
},
{
}
);
name = Stencil;
},
{
axesValues = (
100
);
customParameters = (
{
name = "Master Icon Glyph Name";
value = A;
}
);
id = m002;
metricValues = (
{
over = 16;
pos = 800;
},
{
over = 16;
pos = 700;
},
{
over = 16;
pos = 500;
},
{
over = -16;
},
{
over = -16;
pos = -200;
},
{
}
);
name = Italic;
}
);
glyphs = (
{
glyphname = A;
lastChange = "2024-10-27 22:47:32 +0000";
layers = (
{
layerId = m01;
shapes = (
{
attr = {
fill = 1;
strokeWidth = 1;
};
closed = 1;
nodes = (
(719,419,o),
(732,405,o),
(776,344,c),
(937,641,l),
(875,635,o),
(819,610,o),
(781,562,c),
(683,451,l)
);
},
{
attr = {
fill = 1;
strokeWidth = 1;
};
closed = 1;
nodes = (
(1086,117,o),
(1241,251,o),
(1241,251,c),
(1241,251,o),
(1071,-97,o),
(843,114,c),
(736,-79,l),
(723,-107,o),
(742,-140,o),
(773,-140,cs),
(1021,-140,l),
(998,-200,l),
(627,-200,l),
(559,-205,o),
(518,-134,o),
(549,-76,cs),
(730,259,l),
(696,310,o),
(662,353,o),
(627,388,c),
(362,88,ls),
(312,30,o),
(240,5,o),
(164,5,c),
(109,8,o),
(55,11,o),
(0,14,c),
(71,162,l),
(104,159,o),
(137,155,o),
(170,152,c),
(250,149,o),
(326,179,o),
(384,236,c),
(572,438,l),
(453,534,o),
(335,545,o),
(253,536,cs),
(217,532,o),
(189,524,o),
(170,518,c),
(241,543,o),
(448,602,o),
(624,494,c),
(699,575,ls),
(775,655,o),
(877,700,o),
(986,700,cs),
(1168,700,l),
(905,225,l)
);
}
);
width = 1241;
},
{
layerId = m002;
shapes = (
{
attr = {
fill = "1";
strokeWidth = 1;
};
closed = 1;
nodes = (
(708,393,o),
(712,389,o),
(735,362,c),
(910,659,l),
(848,653,o),
(831,622,o),
(800,592,c),
(673,431,l)
);
},
{
attr = {
fill = "1";
strokeWidth = 1;
};
closed = 1;
nodes = (
(1086,107,o),
(1239,246,o),
(1239,246,c),
(1239,246,o),
(1052,-137,o),
(824,74,c),
(732,-84,l),
(716,-112,o),
(740,-145,o),
(771,-145,cs),
(889,-145,l),
(858,-200,l),
(625,-200,l),
(557,-205,o),
(432,-161,o),
(500,-46,cs),
(675,251,l),
(648,309,o),
(640,315,o),
(615,372,c),
(390,118,ls),
(287,2,o),
(210,0,o),
(158,0,cs),
(-14,0,o),
(-9,223,o),
(15,342,c),
(158,382,l),
(145,259,o),
(154,160,o),
(211,147,cs),
(263,135,o),
(340,160,o),
(398,231,c),
(575,438,l),
(408,678,o),
(214,629,o),
(158,382,c),
(144,363,o),
(29,346,o),
(15,342,c),
(93,713,o),
(422,680,o),
(622,489,c),
(697,570,ls),
(780,659,o),
(875,700,o),
(984,700,cs),
(1183,700,l),
(905,215,l)
);
}
);
width = 1241;
},
{
associatedMasterId = m002;
background = {
shapes = (
{
attr = {
strokeWidth = 0.25;
};
closed = 1;
nodes = (
(1585,800,l),
(1001,-206,l),
(-5,-206,l),
(574,800,l)
);
},
{
attr = {
strokeWidth = 0.25;
};
closed = 0;
nodes = (
(27,-147,l),
(1039,-147,l)
);
},
{
attr = {
strokeWidth = 0.25;
};
closed = 0;
nodes = (
(65,-82,l),
(1072,-82,l)
);
},
{
attr = {
strokeWidth = 0.25;
};
closed = 0;
nodes = (
(103,-17,l),
(1110,-17,l)
);
},
{
attr = {
strokeWidth = 0.25;
};
closed = 0;
nodes = (
(135,42,l),
(1148,42,l)
);
},
{
attr = {
strokeWidth = 0.25;
};
closed = 0;
nodes = (
(173,107,l),
(1186,107,l)
);
},
{
attr = {
strokeWidth = 0.25;
};
closed = 0;
nodes = (
(211,173,l),
(1218,173,l)
);
},
{
attr = {
strokeWidth = 0.25;
};
closed = 0;
nodes = (
(249,233,l),
(1256,233,l)
);
},
{
attr = {
strokeWidth = 0.25;
};
closed = 0;
nodes = (
(281,298,l),
(1294,298,l)
);
},
{
attr = {
strokeWidth = 0.25;
};
closed = 0;
nodes = (
(319,362,l),
(1332,362,l)
);
},
{
attr = {
strokeWidth = 0.25;
};
closed = 0;
nodes = (
(358,422,l),
(1364,422,l)
);
},
{
attr = {
strokeWidth = 0.25;
};
closed = 0;
nodes = (
(396,487,l),
(1402,487,l)
);
},
{
attr = {
strokeWidth = 0.25;
};
closed = 0;
nodes = (
(428,551,l),
(1440,551,l)
);
},
{
attr = {
strokeWidth = 0.25;
};
closed = 0;
nodes = (
(466,611,l),
(1472,611,l)
);
},
{
attr = {
strokeWidth = 0.25;
};
closed = 0;
nodes = (
(504,676,l),
(1510,676,l)
);
},
{
attr = {
strokeWidth = 0.25;
};
closed = 0;
nodes = (
(536,735,l),
(1548,735,l)
);
},
{
attr = {
strokeWidth = 0.25;
};
closed = 0;
nodes = (
(1521,800,l),
(936,-206,l)
);
},
{
attr = {
strokeWidth = 0.25;
};
closed = 0;
nodes = (
(1456,800,l),
(877,-206,l)
);
},
{
attr = {
strokeWidth = 0.25;
};
closed = 0;
nodes = (
(1396,800,l),
(812,-206,l)
);
},
{
attr = {
strokeWidth = 0.25;
};
closed = 0;
nodes = (
(1332,800,l),
(747,-206,l)
);
},
{
attr = {
strokeWidth = 0.25;
};
closed = 0;
nodes = (
(1267,800,l),
(688,-206,l)
);
},
{
attr = {
strokeWidth = 0.25;
};
closed = 0;
nodes = (
(1207,800,l),
(623,-206,l)
);
},
{
attr = {
strokeWidth = 0.25;
};
closed = 0;
nodes = (
(1143,800,l),
(558,-206,l)
);
},
{
attr = {
strokeWidth = 0.25;
};
closed = 0;
nodes = (
(1078,800,l),
(499,-206,l)
);
},
{
attr = {
strokeWidth = 0.25;
};
closed = 0;
nodes = (
(1017,800,l),
(434,-206,l)
);
},
{
attr = {
strokeWidth = 0.25;
};
closed = 0;
nodes = (
(952,800,l),
(369,-206,l)
);
},
{
attr = {
strokeWidth = 0.25;
};
closed = 0;
nodes = (
(887,800,l),
(308,-206,l)
);
},
{
attr = {
strokeWidth = 0.25;
};
closed = 0;
nodes = (
(828,800,l),
(243,-206,l)
);
},
{
attr = {
strokeWidth = 0.25;
};
closed = 0;
nodes = (
(763,800,l),
(184,-206,l)
);
},
{
attr = {
strokeWidth = 0.25;
};
closed = 0;
nodes = (
(698,800,l),
(119,-206,l)
);
},
{
attr = {
strokeWidth = 0.25;
};
closed = 0;
nodes = (
(639,800,l),
(54,-206,l)
);
}
);
};
layerId = "4E363B4E-9DEB-475A-BD39-745F946BE7DA";
name = Backup;
shapes = (
{
attr = {
fill = "1";
strokeWidth = 1;
};
closed = 1;
nodes = (
(963,642,l),
(891,642,o),
(824,617,o),
(781,562,c),
(362,88,l),
(312,30,o),
(240,0,o),
(164,0,c),
(0,14,l),
(71,162,l),
(170,152,l),
(250,149,o),
(326,179,o),
(384,236,c),
(699,575,l),
(775,655,o),
(877,700,o),
(986,700,c),
(1190,700,l),
(1155,642,l)
);
},
{
attr = {
fill = "1";
strokeWidth = 1;
};
closed = 1;
nodes = (
(1159,649,l),
(736,-79,l),
(723,-107,o),
(742,-140,o),
(773,-140,c),
(1021,-140,l),
(998,-200,l),
(627,-200,l),
(559,-205,o),
(518,-134,o),
(549,-76,c),
(959,652,l)
);
},
{
attr = {
fill = "1";
strokeWidth = 1;
};
closed = 1;
nodes = (
(243,356,o),
(553,534,o),
(782,269,c),
(1007,9,o),
(1203,210,o),
(1203,210,c),
(1203,210,o),
(1047,-197,o),
(775,160,c),
(503,519,o),
(243,356,o),
(243,356,c)
);
}
);
width = 1241;
}
);
unicode = 65;
},
{
glyphname = B;
lastChange = "2024-10-29 03:08:50 +0000";
layers = (
{
layerId = m01;
shapes = (
{
attr = {
fill = 1;
strokeWidth = 1;
};
closed = 1;
nodes = (
(920,641,o),
(872,699,o),
(800,699,cs),
(657,699,l),
(652,680,l),
(762,680,l),
(810,683,o),
(827,633,o),
(816,571,cs),
(805,510,o),
(771,460,o),
(724,460,cs),
(609,460,l),
(607,415,l),
(756,415,ls),
(827,415,o),
(894,499,o),
(905,571,c)
);
},
{
attr = {
fill = 1;
strokeWidth = 1;
};
closed = 1;
nodes = (
(365,660,l),
(495,660,ls),
(543,660,o),
(538,619,o),
(529,596,cs),
(383,251,l),
(350,182,o),
(284,134,o),
(212,132,c),
(69,120,l),
(50,80,o),
(32,40,o),
(13,0,c),
(83,0,o),
(152,0,o),
(222,0,cs),
(343,0,o),
(449,80,o),
(479,198,c),
(593,538,l),
(607,596,o),
(643,635,o),
(702,635,cs),
(777,635,l),
(800,699,l),
(387,699,l)
);
},
{
attr = {
fill = 1;
strokeWidth = 1;
};
closed = 1;
nodes = (
(805,457,l),
(609,460,l),
(607,415,l),
(800,414,ls),
(886,415,o),
(944,365,o),
(894,229,cs),
(845,95,o),
(655,120,o),
(529,289,cs),
(345,544,o),
(69,457,o),
(0,432,c),
(14,437,o),
(38,444,o),
(68,447,cs),
(170,460,o),
(349,435,o),
(516,173,cs),
(557,105,o),
(602,61,o),
(641,33,c),
(641,33,o),
(685,0,o),
(786,0,c),
(916,9,o),
(1034,104,o),
(1056,229,cs),
(1078,357,o),
(992,457,o),
(866,457,cs)
);
}
);
width = 1060;
},
{
background = {
shapes = (
{
attr = {
strokeWidth = 0.25;
};
closed = 1;
nodes = (
(1309,800,l),
(725,-206,l),
(-281,-206,l),
(298,800,l)
);
},
{
attr = {
strokeWidth = 0.25;
};
closed = 0;
nodes = (
(-249,-147,l),
(763,-147,l)
);
},
{
attr = {
strokeWidth = 0.25;
};
closed = 0;
nodes = (
(-211,-82,l),
(796,-82,l)
);
},
{
attr = {
strokeWidth = 0.25;
};
closed = 0;
nodes = (
(-173,-17,l),
(834,-17,l)
);
},
{
attr = {
strokeWidth = 0.25;
};
closed = 0;
nodes = (
(-141,42,l),
(872,42,l)
);
},
{
attr = {
strokeWidth = 0.25;
};
closed = 0;
nodes = (
(-103,107,l),
(910,107,l)
);
},
{
attr = {
strokeWidth = 0.25;
};
closed = 0;
nodes = (
(-65,173,l),
(942,173,l)
);
},
{
attr = {
strokeWidth = 0.25;
};
closed = 0;
nodes = (
(-27,233,l),
(980,233,l)
);
},
{
attr = {
strokeWidth = 0.25;
};
closed = 0;
nodes = (
(5,298,l),
(1018,298,l)
);
},
{
attr = {
strokeWidth = 0.25;
};
closed = 0;
nodes = (
(43,362,l),
(1056,362,l)
);
},
{
attr = {
strokeWidth = 0.25;
};
closed = 0;
nodes = (
(82,422,l),
(1088,422,l)
);
},
{
attr = {
strokeWidth = 0.25;
};
closed = 0;
nodes = (
(120,487,l),
(1126,487,l)
);
},
{
attr = {
strokeWidth = 0.25;
};
closed = 0;
nodes = (
(152,551,l),
(1164,551,l)
);
},
{
attr = {
strokeWidth = 0.25;
};
closed = 0;
nodes = (
(190,611,l),
(1196,611,l)
);
},
{
attr = {
strokeWidth = 0.25;
};
closed = 0;
nodes = (
(228,676,l),
(1234,676,l)
);
},
{
attr = {
strokeWidth = 0.25;
};
closed = 0;
nodes = (
(260,735,l),
(1272,735,l)
);
},
{
attr = {
strokeWidth = 0.25;
};
closed = 0;
nodes = (
(1245,800,l),
(660,-206,l)
);
},
{
attr = {
strokeWidth = 0.25;
};
closed = 0;
nodes = (
(1120,800,l),
(536,-206,l)
);
},
{
attr = {
strokeWidth = 0.25;
};
closed = 0;
nodes = (
(1056,800,l),
(471,-206,l)
);
},
{
attr = {
strokeWidth = 0.25;
};
closed = 0;
nodes = (
(991,800,l),
(412,-206,l)
);
},
{
attr = {
strokeWidth = 0.25;
};
closed = 0;
nodes = (
(931,800,l),
(347,-206,l)
);
},
{
attr = {
strokeWidth = 0.25;
};
closed = 0;
nodes = (
(867,800,l),
(282,-206,l)
);
},
{
attr = {
strokeWidth = 0.25;
};
closed = 0;
nodes = (
(802,800,l),
(223,-206,l)
);
},
{
attr = {
strokeWidth = 0.25;
};
closed = 0;
nodes = (
(741,800,l),
(158,-206,l)
);
},
{
attr = {
strokeWidth = 0.25;
};
closed = 0;
nodes = (
(676,800,l),
(93,-206,l)
);
},
{
attr = {
strokeWidth = 0.25;
};
closed = 0;
nodes = (
(611,800,l),
(32,-206,l)
);
},
{
attr = {
strokeWidth = 0.25;
};
closed = 0;
nodes = (
(552,800,l),
(-33,-206,l)
);
},
{
attr = {
strokeWidth = 0.25;
};
closed = 0;
nodes = (
(487,800,l),
(-92,-206,l)
);
},
{
attr = {
strokeWidth = 0.25;
};
closed = 0;
nodes = (
(422,800,l),
(-157,-206,l)
);
},
{
attr = {
strokeWidth = 0.25;
};
closed = 0;
nodes = (
(363,800,l),
(-222,-206,l)
);
}
);
};
layerId = m002;
shapes = (
{
attr = {
fill = "1";
strokeWidth = 1;
};
closed = 1;
nodes = (
(947,687,o),
(799,701,o),
(727,700,cs),
(584,699,l),
(579,660,l),
(698,660,l),
(746,660,o),
(808,678,o),
(778,569,cs),
(756,490,o),
(698,460,o),
(651,460,cs),
(544,460,l),
(518,415,l),
(673,415,ls),
(744,415,o),
(929,423,o),
(942,569,c)
);
},
{
attr = {
fill = "1";
strokeWidth = 1;
};
closed = 1;
nodes = (
(292,660,l),
(422,660,ls),
(470,660,o),
(448,619,o),
(434,596,cs),
(234,251,l),
(193,182,o),
(142,114,o),
(125,181,c),
(4,124,l),
(22,73,o),
(41,43,o),
(73,25,cs),
(121,-3,o),
(162,-9,o),
(217,1,cs),
(338,23,o),
(382,70,o),
(456,198,c),
(725,666,l),
(727,670,o),
(725,666,o),
(730,675,cs),
(733,681,l),
(742,698,l),
(314,699,l)
);
},
{
attr = {
fill = "1";
strokeWidth = 1;
};
closed = 1;
nodes = (
(732,457,l),
(544,460,l),
(518,415,l),
(667,414,ls),
(706,414,o),
(821,356,o),
(751,229,cs),
(702,140,o),
(582,120,o),
(456,289,cs),
(272,544,o),
(-39,307,o),
(4,124,c),
(63,124,o),
(133,120,o),
(125,181,cs),
(92,444,o),
(279,430,o),
(443,173,cs),
(484,105,o),
(529,61,o),
(568,33,c),
(568,33,o),
(612,0,o),
(713,0,c),
(843,9,o),
(961,104,o),
(983,229,cs),
(1005,357,o),
(919,457,o),
(793,457,cs)
);
}
);
width = 987;
}
);
unicode = 66;
},
{
glyphname = C;
lastChange = "2024-10-29 03:09:27 +0000";
layers = (
{
layerId = m01;
shapes = (
{
attr = {
fill = 1;
strokeWidth = 1;
};
closed = 1;
nodes = (
(163,-94,o),
(342,63,o),
(391,111,cs),
(399,119,o),
(404,124,o),
(404,124,c),
(404,124,o),
(258,-9,o),
(177,126,cs),
(127,208,o),
(128,302,o),
(148,385,cs),
(181,518,o),
(261,626,o),
(261,626,c),
(261,626,o),
(-42,280,o),
(69,78,cs)
);
},
{
attr = {
fill = 1;
strokeWidth = 1;
};
closed = 1;
nodes = (
(100,387,o),
(216,455,o),
(230,455,c),
(250,494,o),
(264,521,o),
(284,550,c),
(286,549,o),
(439,334,o),
(509,570,c),
(551,761,o),
(330,713,o),
(249,630,c),
(143,766,o),
(21,655,o),
(-9,644,cs),
(18,654,o),
(133,713,o),
(223,604,c),
(145,525,o),
(100,387,o),
(100,387,c)
);
},
{
attr = {
fill = 1;
strokeWidth = 1;
};
closed = 1;
nodes = (
(424,474,o),
(368,494,o),
(304,579,c),
(472,750,o),
(509,608,o),
(470,547,cs)
);
}
);
width = 523;
},
{
background = {
shapes = (
{
closed = 1;
nodes = (
(131,-57,o),
(352,-20,o),
(533,140,cs),
(713,301,o),
(785,525,o),
(695,641,cs),
(602,757,o),
(381,720,o),
(202,561,cs),
(19,398,o),
(-52,174,o),
(39,57,cs)
);
},
{
closed = 1;
nodes = (
(267,70,o),
(412,94,o),
(530,200,cs),
(647,304,o),
(737,527,o),
(678,601,cs),
(617,678,o),
(431,579,o),
(314,474,cs),
(195,368,o),
(148,221,o),
(208,144,cs)
);
}
);
};
layerId = m002;
shapes = (
{
attr = {
fill = "1";
strokeWidth = 1;
};
closed = 1;
nodes = (
(344,-8,o),
(452,80,o),
(515,197,c),
(505,254,o),
(505,254,o),
(505,254,c),
(479,211,o),
(386,89,o),
(283,103,cs),
(159,120,o),
(225,274,o),
(283,368,c),
(214,465,o),
(47,368,o),
(47,368,c),
(-51,154,o),
(9,-8,o),
(196,-8,cs)
);
},
{
attr = {
fill = "1";
strokeWidth = 1;
};
closed = 1;
nodes = (
(47,368,o),
(269,368,o),
(283,368,c),
(342,453,o),
(368,481,o),
(437,520,c),
(523,364,o),
(738,310,o),
(731,531,cs),
(725,719,o),
(524,736,o),
(393,678,c),
(276,787,o),
(75,674,o),
(45,646,c),
(80,656,o),
(235,746,o),
(330,650,c),
(130,550,o),
(47,368,o),
(47,368,c)
);
},
{
attr = {
fill = "1";
strokeWidth = 1;
};
closed = 1;
nodes = (
(623,445,o),
(563,478,o),
(499,563,c),
(665,653,o),
(708,579,o),
(669,518,cs)
);
}
);
width = 731;
}
);
unicode = 67;
},
{
glyphname = D;
lastChange = "2024-10-29 01:26:31 +0000";
layers = (
{
layerId = m01;
shapes = (
{
attr = {
fill = 1;
strokeWidth = 1;
};
closed = 1;
nodes = (
(298,-34,o),
(318,8,o),
(335,50,c),
(363,105,l),
(566,-254,o),
(890,337,o),
(890,337,c),
(784,337,l),
(518,-203,o),
(430,73,o),
(406,195,c),
(639,667,l),
(514,667,l),
(209,44,l),
(189,6,o),
(181,6,o),
(162,6,c),
(0,6,l),
(16,-25,l),
(254,-34,l)
);
},
{
attr = {
fill = 1;
strokeWidth = 1;
};
closed = 1;
nodes = (
(396,618,o),
(482,829,o),
(706,531,c),
(591,412,o),
(499,396,o),
(440,515,c)
);
},
{
attr = {
fill = 1;
strokeWidth = 1;
};
closed = 1;
nodes = (
(980,195,o),
(941,418,o),
(835,556,c),
(993,704,o),
(1160,589,o),
(1200,569,c),
(1156,595,o),
(991,787,o),
(801,600,c),
(688,740,o),
(363,862,o),
(387,559,c),
(448,181,o),
(726,483,o),
(733,485,c),
(755,434,o),
(770,390,o),
(791,329,c),
(814,323,o),
(980,195,o),
(980,195,c)
);
}
);
width = 1200;
},
{
background = {
shapes = (
{
attr = {
strokeWidth = 0.25;
};
closed = 1;
nodes = (
(1465,800,l),
(881,-206,l),
(-125,-206,l),
(454,800,l)
);
},
{
attr = {
strokeWidth = 0.25;
};
closed = 0;
nodes = (
(-93,-147,l),
(919,-147,l)
);
},
{
attr = {
strokeWidth = 0.25;
};
closed = 0;
nodes = (
(-55,-82,l),
(952,-82,l)
);
},
{
attr = {
strokeWidth = 0.25;
};
closed = 0;
nodes = (
(-17,-17,l),
(990,-17,l)
);
},
{
attr = {
strokeWidth = 0.25;
};
closed = 0;
nodes = (
(15,42,l),
(1028,42,l)
);
},
{
attr = {
strokeWidth = 0.25;
};
closed = 0;
nodes = (
(53,107,l),
(367,107,l)
);
},
{
attr = {
strokeWidth = 0.25;
};
closed = 0;
nodes = (
(91,173,l),
(1098,173,l)
);
},
{
attr = {
strokeWidth = 0.25;
};
closed = 0;
nodes = (
(129,233,l),
(1136,233,l)
);
},
{
attr = {
strokeWidth = 0.25;
};
closed = 0;
nodes = (
(161,298,l),
(1174,298,l)
);
},
{
attr = {
strokeWidth = 0.25;
};
closed = 0;
nodes = (
(199,362,l),
(1212,362,l)
);
},
{
attr = {
strokeWidth = 0.25;
};
closed = 0;
nodes = (
(238,422,l),
(1244,422,l)
);
},
{
attr = {
strokeWidth = 0.25;
};
closed = 0;
nodes = (
(276,487,l),
(1282,487,l)
);
},
{
attr = {
strokeWidth = 0.25;
};
closed = 0;
nodes = (
(308,551,l),
(1320,551,l)
);
},
{
attr = {
strokeWidth = 0.25;
};
closed = 0;
nodes = (
(346,611,l),
(1352,611,l)
);
},
{
attr = {
strokeWidth = 0.25;
};
closed = 0;
nodes = (
(384,676,l),
(1390,676,l)
);
},
{
attr = {
strokeWidth = 0.25;
};
closed = 0;
nodes = (
(416,735,l),
(1428,735,l)
);
},
{
attr = {
strokeWidth = 0.25;
};
closed = 0;
nodes = (
(1401,800,l),
(816,-206,l)
);
},
{
attr = {
strokeWidth = 0.25;
};
closed = 0;
nodes = (
(1276,800,l),
(692,-206,l)
);
},
{
attr = {
strokeWidth = 0.25;
};
closed = 0;
nodes = (
(1212,800,l),
(627,-206,l)
);
},
{
attr = {
strokeWidth = 0.25;
};
closed = 0;
nodes = (
(1147,800,l),
(568,-206,l)
);
},
{
attr = {
strokeWidth = 0.25;
};
closed = 0;
nodes = (
(1087,800,l),
(503,-206,l)
);
},
{
attr = {
strokeWidth = 0.25;
};
closed = 0;
nodes = (
(1023,800,l),
(438,-206,l)
);
},
{
attr = {
strokeWidth = 0.25;
};
closed = 0;
nodes = (
(958,800,l),
(379,-206,l)
);
},
{
attr = {
strokeWidth = 0.25;
};
closed = 0;
nodes = (
(897,800,l),
(314,-206,l)
);
},
{
attr = {
strokeWidth = 0.25;
};
closed = 0;
nodes = (
(832,800,l),
(249,-206,l)
);
},
{
attr = {
strokeWidth = 0.25;
};
closed = 0;
nodes = (
(767,800,l),
(188,-206,l)
);
},
{
attr = {
strokeWidth = 0.25;
};
closed = 0;
nodes = (
(708,800,l),
(123,-206,l)
);
},
{
attr = {
strokeWidth = 0.25;
};
closed = 0;
nodes = (
(643,800,l),
(64,-206,l)
);
},
{
attr = {
strokeWidth = 0.25;
};
closed = 0;
nodes = (
(578,800,l),
(-1,-206,l)
);
},
{
attr = {
strokeWidth = 0.25;
};
closed = 0;
nodes = (
(519,800,l),
(-66,-206,l)
);
},
{
attr = {
strokeWidth = 0.25;
};
closed = 0;
nodes = (
(367,107,l),
(1066,107,l)
);
}
);
};
layerId = m002;
shapes = (
{
attr = {
fill = 1;
strokeWidth = 1;
};
closed = 1;
nodes = (
(273,-34,o),
(309,-7,o),
(337,50,c),
(369,105,l),
(480,-103,o),
(798,-64,o),
(1016,322,c),
(793,322,l),
(593,-20,o),
(442,87,o),
(431,181,c),
(712,667,l),
(501,667,l),
(148,53,l),
(128,15,o),
(111,6,o),
(92,6,c),
(0,9,l),
(18,-25,l),
(229,-34,l)
);
},
{
attr = {
fill = 1;
strokeWidth = 1;
};
closed = 1;
nodes = (
(369,625,o),
(616,846,o),
(794,610,c),
(679,491,o),
(472,403,o),
(413,522,c)
);
},
{
attr = {
fill = 1;
strokeWidth = 1;
};
closed = 1;
nodes = (
(1081,458,o),
(1058,598,o),
(1003,660,c),
(1175,741,o),
(1234,695,o),
(1274,675,c),
(1253,707,o),
(1167,818,o),
(949,700,c),
(837,795,o),
(354,848,o),
(350,542,c),
(411,164,o),
(820,549,o),
(827,551,c),
(855,491,o),
(848,432,o),
(793,322,c),
(816,316,o),
(1016,322,o),
(1016,322,c)
);
}
);
width = 1274;
}
);
unicode = 68;
},
{
glyphname = E;
lastChange = "2024-10-29 10:55:59 +0000";
layers = (
{
layerId = m01;
shapes = (
{
closed = 1;
nodes = (
(807,180,o),
(783,212,o),
(761,243,c),
(851,351,l),
(919,324,o),
(989,308,o),
(989,308,c),
(1084,313,o),
(1179,318,o),
(1274,323,c),
(1515,335,l),
(1181,493,l),
(1067,493,l),
(1112,468,o),
(1158,444,o),
(1203,419,c),
(906,414,l),
(992,520,l),
(1036,568,o),
(1085,616,o),
(1151,613,c),
(1281,613,l),
(1337,702,l),
(1174,702,l),
(1077,702,o),
(974,667,o),
(906,592,c),
(665,342,l),
(377,580,o),
(36,283,o),
(36,283,c),
(36,283,o),
(56,288,o),
(91,292,cs),
(174,302,o),
(341,302,o),
(503,197,c),
(464,166,o),
(199,179,o),
(103,180,c),
(0,1,l),
(173,13,o),
(508,-39,o),
(625,86,c),
(662,47,o),
(693,-2,o),
(725,-56,c),
(974,-511,o),
(1558,-258,o),
(1558,-258,c),
(1558,-258,o),
(1132,-422,o),
(828,141,c)
);
}
);
width = 1558;
},
{
background = {
shapes = (
{
attr = {
strokeWidth = 0.25;
};
closed = 1;
nodes = (
(1442,800,l),
(858,-206,l),
(-148,-206,l),
(431,800,l)
);
},
{
attr = {
strokeWidth = 0.25;
};
closed = 0;
nodes = (
(-116,-147,l),
(896,-147,l)
);
},
{
attr = {
strokeWidth = 0.25;
};
closed = 0;
nodes = (
(-78,-82,l),
(929,-82,l)
);
},
{
attr = {
strokeWidth = 0.25;
};
closed = 0;
nodes = (
(-40,-17,l),
(967,-17,l)
);
},
{
attr = {
strokeWidth = 0.25;
};
closed = 0;
nodes = (
(-8,42,l),
(1005,42,l)
);
},
{
attr = {
strokeWidth = 0.25;
};
closed = 0;
nodes = (
(30,107,l),
(344,107,l)
);
},
{
attr = {
strokeWidth = 0.25;
};
closed = 0;
nodes = (
(68,173,l),
(1075,173,l)
);
},
{
attr = {
strokeWidth = 0.25;
};
closed = 0;
nodes = (
(106,233,l),
(1113,233,l)
);
},
{
attr = {
strokeWidth = 0.25;
};
closed = 0;
nodes = (
(138,298,l),
(1151,298,l)
);
},
{
attr = {
strokeWidth = 0.25;
};
closed = 0;
nodes = (
(176,362,l),
(1189,362,l)
);
},
{
attr = {
strokeWidth = 0.25;
};
closed = 0;
nodes = (
(215,422,l),
(1221,422,l)
);
},
{
attr = {
strokeWidth = 0.25;
};
closed = 0;
nodes = (
(253,487,l),
(1259,487,l)
);
},
{
attr = {
strokeWidth = 0.25;
};
closed = 0;
nodes = (
(285,551,l),
(1297,551,l)
);
},
{
attr = {
strokeWidth = 0.25;
};
closed = 0;
nodes = (
(323,611,l),
(1329,611,l)
);
},
{
attr = {
strokeWidth = 0.25;
};
closed = 0;
nodes = (
(361,676,l),
(1367,676,l)
);
},
{
attr = {
strokeWidth = 0.25;
};
closed = 0;
nodes = (
(393,735,l),
(1405,735,l)
);
},
{
attr = {
strokeWidth = 0.25;
};
closed = 0;
nodes = (
(1378,800,l),
(793,-206,l)
);
},
{
attr = {
strokeWidth = 0.25;
};
closed = 0;
nodes = (
(1253,800,l),
(669,-206,l)
);
},
{
attr = {
strokeWidth = 0.25;
};
closed = 0;
nodes = (
(1189,800,l),
(604,-206,l)
);
},
{
attr = {
strokeWidth = 0.25;
};
closed = 0;
nodes = (
(1124,800,l),
(545,-206,l)
);
},
{
attr = {
strokeWidth = 0.25;
};
closed = 0;
nodes = (
(1064,800,l),
(480,-206,l)
);
},
{
attr = {
strokeWidth = 0.25;
};
closed = 0;
nodes = (
(1000,800,l),
(415,-206,l)
);
},
{
attr = {
strokeWidth = 0.25;
};
closed = 0;
nodes = (
(935,800,l),
(356,-206,l)
);
},
{
attr = {
strokeWidth = 0.25;
};
closed = 0;
nodes = (
(874,800,l),
(291,-206,l)
);
},
{
attr = {
strokeWidth = 0.25;
};
closed = 0;
nodes = (
(809,800,l),
(226,-206,l)
);
},
{
attr = {
strokeWidth = 0.25;
};
closed = 0;
nodes = (
(744,800,l),
(165,-206,l)
);
},
{
attr = {
strokeWidth = 0.25;
};
closed = 0;
nodes = (
(685,800,l),
(100,-206,l)
);
},
{
attr = {
strokeWidth = 0.25;
};
closed = 0;
nodes = (
(620,800,l),
(41,-206,l)
);
},
{
attr = {
strokeWidth = 0.25;
};
closed = 0;
nodes = (
(555,800,l),
(-24,-206,l)
);
},
{
attr = {
strokeWidth = 0.25;
};
closed = 0;
nodes = (
(496,800,l),
(-89,-206,l)
);
},
{
attr = {
strokeWidth = 0.25;
};
closed = 0;
nodes = (
(344,107,l),
(1043,107,l)
);
}
);
};
layerId = m002;
shapes = (
{
closed = 1;
nodes = (
(890,81,o),
(798,166,o),
(776,197,c),
(865,351,l),
(943,349,o),
(966,348,o),
(966,348,c),
(951,316,o),
(942,291,o),
(942,263,c),
(975,225,l),
(1125,499,l),
(1079,495,l),
(1041,471,o),
(1017,446,o),
(997,422,c),
(906,422,l),
(966,520,l),
(1010,591,o),
(1062,614,o),
(1128,611,c),
(1208,613,l),
(1264,702,l),
(998,700,l),
(901,700,o),
(817,689,o),
(764,608,c),
(628,380,l),
(372,638,o),
(203,591,o),
(83,283,c),
(83,283,o),
(131,260,o),
(170,290,c),
(146,528,o),
(306,500,o),
(480,197,c),
(400,68,o),
(213,42,o),
(170,290,c),
(83,283,l),
(-8,14,o),
(336,-136,o),
(567,86,c),
(596,42,o),
(642,-20,o),
(685,-72,c),
(1013,-437,o),
(1198,51,o),
(1198,51,c),
(1089,-50,o),
(1030,-50,o),
(927,42,c)
);
}
);
width = 1314;
}
);
unicode = 69;
},
{
glyphname = F;
lastChange = "2024-10-29 02:27:23 +0000";
layers = (
{
layerId = m01;
shapes = (
{
closed = 1;
nodes = (
(621,534,o),
(689,666,o),
(792,691,c),
(865,713,o),
(937,715,o),
(987,712,cs),
(1028,709,o),
(1054,703,o),
(1054,703,c),
(1054,703,o),
(826,963,o),
(618,700,c),
(544,699,o),
(471,699,o),
(397,698,c),
(356,627,l),
(393,627,o),
(431,627,o),
(468,627,c),
(495,627,o),
(513,616,o),
(511,582,c),
(398,486,o),
(291,487,o),
(228,501,cs),
(192,508,o),
(171,520,o),
(171,520,c),
(171,520,o),
(310,436,o),
(452,452,c),
(442,434,o),
(431,417,o),
(421,399,c),
(313,214,l),
(276,153,o),
(230,116,o),
(167,112,c),
(133,113,o),
(98,113,o),
(64,114,c),
(58,103,o),
(52,93,o),
(46,82,c),
(16,30,l),
(11,21,o),
(5,11,o),
(0,2,c),
(59,1,o),
(119,1,o),
(178,0,c),
(281,0,o),
(342,43,o),
(399,160,c),
(436,221,l),
(611,221,l),
(696,221,o),
(732,230,o),
(751,194,c),
(760,179,o),
(769,163,o),
(778,148,c),
(933,146,l),
(730,493,l),
(648,493,l),
(666,460,o),
(685,428,o),
(703,395,c),
(723,360,o),
(712,326,o),
(609,322,c),
(493,322,l),
(586,486,o),
(598,506,o),
(607,522,c)
);
}
);
width = 1054;
},
{
background = {
shapes = (
{
attr = {
strokeWidth = 0.25;
};
closed = 1;
nodes = (
(1428,800,l),
(844,-206,l),
(-162,-206,l),
(417,800,l)
);
},
{
attr = {
strokeWidth = 0.25;
};
closed = 0;
nodes = (
(-130,-147,l),
(882,-147,l)
);
},
{
attr = {
strokeWidth = 0.25;
};
closed = 0;
nodes = (
(-92,-82,l),
(915,-82,l)
);
},
{
attr = {
strokeWidth = 0.25;
};
closed = 0;
nodes = (
(-54,-17,l),
(953,-17,l)
);
},
{
attr = {
strokeWidth = 0.25;
};
closed = 0;
nodes = (
(-22,42,l),
(991,42,l)
);
},
{
attr = {
strokeWidth = 0.25;
};
closed = 0;
nodes = (
(16,107,l),
(330,107,l)
);
},
{
attr = {
strokeWidth = 0.25;
};
closed = 0;
nodes = (
(54,173,l),
(1061,173,l)
);
},
{
attr = {
strokeWidth = 0.25;
};
closed = 0;
nodes = (
(92,233,l),
(1099,233,l)
);
},
{
attr = {
strokeWidth = 0.25;
};
closed = 0;
nodes = (
(124,298,l),
(1137,298,l)
);
},
{
attr = {
strokeWidth = 0.25;
};
closed = 0;
nodes = (
(162,362,l),
(1175,362,l)
);
},
{
attr = {
strokeWidth = 0.25;
};
closed = 0;
nodes = (
(201,422,l),
(1207,422,l)
);
},
{
attr = {
strokeWidth = 0.25;
};
closed = 0;
nodes = (
(239,487,l),
(1245,487,l)
);
},
{
attr = {
strokeWidth = 0.25;
};
closed = 0;
nodes = (
(271,551,l),
(1283,551,l)
);
},
{
attr = {
strokeWidth = 0.25;
};
closed = 0;
nodes = (
(309,611,l),
(1315,611,l)
);
},
{
attr = {
strokeWidth = 0.25;
};
closed = 0;
nodes = (
(347,676,l),
(1353,676,l)
);
},
{
attr = {
strokeWidth = 0.25;
};
closed = 0;
nodes = (
(379,735,l),
(1391,735,l)
);
},
{
attr = {
strokeWidth = 0.25;
};
closed = 0;
nodes = (
(1364,800,l),
(779,-206,l)
);
},
{
attr = {
strokeWidth = 0.25;
};
closed = 0;
nodes = (
(1239,800,l),
(655,-206,l)
);
},
{
attr = {
strokeWidth = 0.25;
};
closed = 0;
nodes = (
(1175,800,l),
(590,-206,l)
);
},
{
attr = {
strokeWidth = 0.25;
};
closed = 0;
nodes = (
(1110,800,l),
(531,-206,l)
);
},
{
attr = {
strokeWidth = 0.25;
};
closed = 0;
nodes = (
(1050,800,l),
(466,-206,l)
);
},
{
attr = {
strokeWidth = 0.25;
};
closed = 0;
nodes = (
(986,800,l),
(401,-206,l)
);
},
{
attr = {
strokeWidth = 0.25;
};
closed = 0;
nodes = (
(921,800,l),
(342,-206,l)
);
},
{
attr = {
strokeWidth = 0.25;
};
closed = 0;
nodes = (
(860,800,l),
(277,-206,l)
);
},
{
attr = {
strokeWidth = 0.25;
};
closed = 0;
nodes = (
(795,800,l),
(212,-206,l)
);
},
{
attr = {
strokeWidth = 0.25;
};
closed = 0;
nodes = (
(730,800,l),
(151,-206,l)
);
},
{
attr = {
strokeWidth = 0.25;
};
closed = 0;
nodes = (
(671,800,l),
(86,-206,l)
);
},
{
attr = {
strokeWidth = 0.25;
};
closed = 0;
nodes = (
(606,800,l),
(27,-206,l)
);
},
{
attr = {
strokeWidth = 0.25;
};
closed = 0;
nodes = (
(541,800,l),
(-38,-206,l)
);
},
{
attr = {
strokeWidth = 0.25;
};
closed = 0;
nodes = (
(482,800,l),
(-103,-206,l)
);
},
{
attr = {
strokeWidth = 0.25;
};
closed = 0;
nodes = (
(330,107,l),
(1029,107,l)
);
}
);
};
layerId = m002;
shapes = (
{
closed = 1;
nodes = (
(695,482,o),
(696,483,o),
(705,500,c),
(827,429,o),
(936,568,o),
(1017,636,c),
(1045,685,o),
(1030,664,o),
(1053,703,c),
(877,589,o),
(753,600,o),
(604,700,c),
(372,864,o),
(165,772,o),
(152,646,c),
(262,621,l),
(255,843,o),
(414,744,o),
(525,607,c),
(546,584,o),
(569,564,o),
(592,550,c),
(417,401,o),
(279,532,o),
(262,621,cs),
(256,653,o),
(152,646,o),
(152,646,c),
(136,473,o),
(362,338,o),
(629,523,c),
(557,458,o),
(491,423,o),
(412,423,c),
(290,213,l),
(226,108,o),
(211,61,o),
(152,75,cs),
(118,83,o),
(89,101,o),
(87,153,cs),
(85,210,o),
(159,232,o),
(194,200,c),
(214,233,l),
(152,308,o),
(-52,256,o),
(13,96,cs),
(61,-22,o),
(188,0,o),
(276,0,c),
(379,0,o),
(437,43,o),
(509,160,c),
(592,303,l),
(629,303,l),
(687,303,o),
(701,308,o),
(683,276,c),
(669,249,o),
(658,222,o),
(663,210,c),
(720,208,l),
(859,446,l),
(798,446,l),
(778,442,o),
(757,416,o),
(737,382,c),
(722,359,o),
(718,358,o),
(653,358,c),
(622,358,l),
(675,448,o),
(675,446,o),
(691,474,c)
);
}
);
width = 1053;
}
);
unicode = 70;
},
{
glyphname = G;
lastChange = "2024-10-29 03:50:13 +0000";
layers = (
{
layerId = m01;
shapes = (
{
closed = 1;
nodes = (
(551,-98,o),
(575,62,o),
(579,151,c),
(590,249,o),
(572,317,o),
(575,323,c),
(692,323,l),
(664,375,l),
(378,374,l),
(378,374,o),
(393,353,o),
(412,323,cs),
(419,311,o),
(427,299,o),
(435,285,cs),
(460,241,o),
(486,188,o),
(491,151,c),
(462,130,o),
(425,101,o),
(420,97,c),
(389,80,o),
(243,-1,o),
(155,144,c),
(100,239,o),
(158,404,o),
(161,404,c),
(420,929,o),
(467,477,o),
(467,477,c),
(533,476,l),
(639,690,l),
(565,690,l),
(505,565,l),
(442,693,o),
(365,696,o),
(292,657,c),
(270,642,o),
(277,647,o),
(240,617,c),
(148,539,o),
(74,404,o),
(74,404,c),
(18,311,o),
(-15,203,o),
(16,111,c),
(101,-130,o),
(426,93,o),
(426,90,c),
(463,-49,o),
(361,-213,o),
(361,-213,c),
(215,-474,o),
(127,-305,o),
(154,-219,c),
(182,-120,o),
(251,-123,o),
(347,-198,c),
(367,-161,l),
(319,-120,o),
(123,20,o),
(116,-257,c),
(123,-512,o),
(368,-387,o),
(441,-260,c),
(611,-401,o),
(719,-229,o),
(751,-207,c),
(724,-225,o),
(604,-332,o),
(463,-221,c)
);
}
);
width = 698;
},
{
background = {
shapes = (
{
attr = {
strokeWidth = 0.25;
};
closed = 1;
nodes = (
(1151,800,l),
(567,-206,l),
(-439,-206,l),
(140,800,l)
);
},
{
attr = {
strokeWidth = 0.25;
};
closed = 0;
nodes = (
(-407,-147,l),
(605,-147,l)
);
},
{
attr = {
strokeWidth = 0.25;
};
closed = 0;
nodes = (
(-369,-82,l),
(638,-82,l)
);
},
{
attr = {
strokeWidth = 0.25;
};
closed = 0;
nodes = (
(-331,-17,l),
(676,-17,l)
);
},
{
attr = {
strokeWidth = 0.25;
};
closed = 0;
nodes = (
(-299,42,l),
(714,42,l)
);
},
{
attr = {
strokeWidth = 0.25;
};
closed = 0;
nodes = (
(-261,107,l),
(53,107,l)
);
},
{
attr = {
strokeWidth = 0.25;
};
closed = 0;
nodes = (
(-223,173,l),
(784,173,l)
);
},
{
attr = {
strokeWidth = 0.25;
};
closed = 0;
nodes = (
(-185,233,l),
(822,233,l)
);
},
{
attr = {
strokeWidth = 0.25;
};
closed = 0;
nodes = (
(-153,298,l),
(860,298,l)
);
},
{
attr = {
strokeWidth = 0.25;
};
closed = 0;
nodes = (
(-115,362,l),
(898,362,l)
);
},
{
attr = {
strokeWidth = 0.25;
};
closed = 0;
nodes = (
(-76,422,l),
(930,422,l)
);
},
{
attr = {
strokeWidth = 0.25;
};
closed = 0;
nodes = (
(-38,487,l),
(968,487,l)
);
},
{
attr = {
strokeWidth = 0.25;
};
closed = 0;
nodes = (
(-6,551,l),
(1006,551,l)
);
},
{
attr = {
strokeWidth = 0.25;
};
closed = 0;
nodes = (
(32,611,l),
(1038,611,l)
);
},
{
attr = {
strokeWidth = 0.25;
};
closed = 0;
nodes = (
(70,676,l),
(1076,676,l)
);
},
{
attr = {
strokeWidth = 0.25;
};
closed = 0;
nodes = (
(102,735,l),
(1114,735,l)
);
},
{
attr = {
strokeWidth = 0.25;
};
closed = 0;
nodes = (
(1087,800,l),
(502,-206,l)
);
},
{
attr = {
strokeWidth = 0.25;
};
closed = 0;
nodes = (
(962,800,l),
(378,-206,l)
);
},
{
attr = {
strokeWidth = 0.25;
};
closed = 0;
nodes = (
(898,800,l),
(313,-206,l)
);
},
{
attr = {
strokeWidth = 0.25;
};
closed = 0;
nodes = (
(833,800,l),
(254,-206,l)
);
},
{
attr = {
strokeWidth = 0.25;
};
closed = 0;
nodes = (
(773,800,l),
(189,-206,l)
);
},
{
attr = {
strokeWidth = 0.25;
};
closed = 0;
nodes = (
(709,800,l),
(124,-206,l)
);
},
{
attr = {
strokeWidth = 0.25;
};
closed = 0;
nodes = (
(644,800,l),
(65,-206,l)
);
},
{
attr = {
strokeWidth = 0.25;
};
closed = 0;
nodes = (
(583,800,l),
(0,-206,l)
);
},
{
attr = {
strokeWidth = 0.25;
};
closed = 0;
nodes = (
(518,800,l),
(-65,-206,l)
);
},
{
attr = {
strokeWidth = 0.25;
};
closed = 0;
nodes = (
(453,800,l),
(-126,-206,l)
);
},
{
attr = {
strokeWidth = 0.25;
};
closed = 0;
nodes = (
(394,800,l),
(-191,-206,l)
);
},
{
attr = {
strokeWidth = 0.25;
};
closed = 0;
nodes = (
(329,800,l),
(-250,-206,l)
);
},
{
attr = {
strokeWidth = 0.25;
};
closed = 0;
nodes = (
(264,800,l),
(-315,-206,l)
);
},
{
attr = {
strokeWidth = 0.25;
};
closed = 0;
nodes = (
(205,800,l),
(-380,-206,l)
);
},
{
attr = {
strokeWidth = 0.25;
};
closed = 0;
nodes = (
(53,107,l),
(752,107,l)
);
}
);
};
layerId = m002;
shapes = (
{
closed = 1;
nodes = (
(629,11,o),
(664,78,o),
(711,151,c),
(773,256,o),
(805,315,o),
(812,326,c),
(842,326,l),
(877,381,l),
(538,380,l),
(528,363,o),
(515,346,o),
(505,326,c),
(523,326,o),
(541,326,o),
(559,326,c),
(529,273,o),
(498,221,o),
(468,168,c),
(453,142,o),
(438,116,o),
(423,90,c),
(392,73,o),
(263,24,o),
(217,134,cs),
(188,203,o),
(299,413,o),
(318,448,cs),
(576,922,o),
(682,487,o),
(682,487,c),
(832,487,l),
(953,700,l),
(798,700,l),
(714,543,l),
(641,750,o),
(459,762,o),
(325,682,c),
(303,667,o),
(275,647,o),
(238,617,c),
(146,539,o),
(62,404,o),
(62,404,c),
(6,311,o),
(-17,203,o),
(15,111,cs),
(99,-130,o),
(409,64,o),
(409,61,c),
(377,7,o),
(346,-47,o),
(314,-101,c),
(234,-229,o),
(131,-183,o),
(147,-97,c),
(157,-21,o),
(219,-51,o),
(307,-127,c),
(346,-59,l),
(252,-9,o),
(96,17,o),
(93,-110,c),
(82,-325,o),
(446,-319,o),
(560,-107,c),
(563,-101,o),
(567,-94,o),
(570,-88,c),
(574,-81,o),
(578,-75,o),
(582,-68,c)
);
}
);
width = 923;
}
);
unicode = 71;
},
{
glyphname = H;
lastChange = "2024-10-29 03:15:42 +0000";
layers = (
{
layerId = m01;
shapes = (
{
closed = 1;
nodes = (
(1145,700,l),
(927,698,l),
(818,500,l),
(786,491,o),
(750,477,o),
(714,457,c),
(643,416,o),
(584,395,o),
(530,386,c),
(570,459,l),
(614,534,o),
(625,568,o),
(664,566,c),
(718,566,l),
(744,611,o),
(769,655,o),
(795,700,c),
(456,696,l),
(436,696,o),
(415,695,o),
(395,695,c),
(357,625,l),
(394,625,o),
(431,625,o),
(468,625,c),
(507,625,o),
(530,598,o),
(484,507,c),
(416,389,l),
(314,411,o),
(261,477,o),
(261,477,c),
(261,477,o),
(274,458,o),
(299,432,cs),
(321,408,o),
(353,378,o),
(393,352,c),
(311,214,l),
(275,150,o),
(232,114,o),
(168,111,c),
(64,114,l),
(0,2,l),
(177,0,l),
(280,0,o),
(341,43,o),
(400,159,c),
(484,309,l),
(550,289,o),
(625,291,o),
(705,336,c),
(716,343,o),
(725,348,o),
(736,352,c),
(616,132,l),
(573,59,o),
(641,5,o),
(718,5,c),
(1032,16,l),
(1052,57,l),
(843,57,l),
(816,57,o),
(800,86,o),
(811,109,c),
(966,382,l),
(1061,359,o),
(1118,300,o),
(1118,300,c),
(1118,300,o),
(1086,398,o),
(1009,459,c)
);
}
);
width = 1145;
},
{
background = {
shapes = (
{
attr = {
strokeWidth = 0.25;
};
closed = 1;
nodes = (
(1401,800,l),
(817,-206,l),
(-189,-206,l),
(390,800,l)
);
},
{
attr = {
strokeWidth = 0.25;
};
closed = 0;
nodes = (
(-157,-147,l),
(855,-147,l)
);
},
{
attr = {
strokeWidth = 0.25;
};
closed = 0;
nodes = (
(-119,-82,l),
(888,-82,l)
);
},
{
attr = {
strokeWidth = 0.25;
};
closed = 0;
nodes = (
(-81,-17,l),
(926,-17,l)
);
},
{
attr = {
strokeWidth = 0.25;
};
closed = 0;
nodes = (
(-49,42,l),
(964,42,l)
);
},
{
attr = {
strokeWidth = 0.25;
};
closed = 0;
nodes = (
(-11,107,l),
(303,107,l)
);
},
{
attr = {
strokeWidth = 0.25;
};
closed = 0;
nodes = (
(27,173,l),
(1034,173,l)
);
},
{
attr = {
strokeWidth = 0.25;
};
closed = 0;
nodes = (
(65,233,l),
(1072,233,l)
);
},
{
attr = {
strokeWidth = 0.25;
};
closed = 0;
nodes = (
(97,298,l),
(1110,298,l)
);
},
{
attr = {
strokeWidth = 0.25;
};
closed = 0;
nodes = (
(135,362,l),
(1148,362,l)
);
},
{
attr = {
strokeWidth = 0.25;
};
closed = 0;
nodes = (
(174,422,l),
(1180,422,l)
);
},
{
attr = {
strokeWidth = 0.25;
};
closed = 0;
nodes = (
(212,487,l),
(1218,487,l)
);
},
{
attr = {
strokeWidth = 0.25;
};
closed = 0;
nodes = (
(244,551,l),
(1256,551,l)
);
},
{
attr = {
strokeWidth = 0.25;
};
closed = 0;
nodes = (
(282,611,l),
(1288,611,l)
);
},
{
attr = {
strokeWidth = 0.25;
};
closed = 0;
nodes = (
(320,676,l),
(1326,676,l)
);
},
{
attr = {
strokeWidth = 0.25;
};
closed = 0;
nodes = (
(352,735,l),
(1364,735,l)
);
},
{
attr = {
strokeWidth = 0.25;
};
closed = 0;
nodes = (
(1337,800,l),
(752,-206,l)
);
},
{
attr = {
strokeWidth = 0.25;
};
closed = 0;
nodes = (
(1212,800,l),
(628,-206,l)
);
},
{
attr = {
strokeWidth = 0.25;
};
closed = 0;
nodes = (
(1148,800,l),
(563,-206,l)
);
},
{
attr = {
strokeWidth = 0.25;
};
closed = 0;
nodes = (
(1083,800,l),
(504,-206,l)
);
},
{
attr = {
strokeWidth = 0.25;
};
closed = 0;
nodes = (
(1023,800,l),
(439,-206,l)
);
},
{
attr = {
strokeWidth = 0.25;
};
closed = 0;
nodes = (
(959,800,l),
(374,-206,l)
);
},
{
attr = {
strokeWidth = 0.25;
};
closed = 0;
nodes = (
(894,800,l),
(315,-206,l)
);
},
{
attr = {
strokeWidth = 0.25;
};
closed = 0;
nodes = (
(833,800,l),
(250,-206,l)
);
},
{
attr = {
strokeWidth = 0.25;
};
closed = 0;
nodes = (
(768,800,l),
(185,-206,l)
);
},
{
attr = {
strokeWidth = 0.25;
};
closed = 0;
nodes = (
(703,800,l),
(124,-206,l)
);
},
{
attr = {
strokeWidth = 0.25;
};
closed = 0;
nodes = (
(644,800,l),
(59,-206,l)
);
},
{
attr = {
strokeWidth = 0.25;
};
closed = 0;
nodes = (
(579,800,l),
(0,-206,l)
);
},
{
attr = {
strokeWidth = 0.25;
};
closed = 0;
nodes = (
(514,800,l),
(-65,-206,l)
);
},
{
attr = {
strokeWidth = 0.25;
};
closed = 0;
nodes = (
(455,800,l),
(-130,-206,l)
);
},
{
attr = {
strokeWidth = 0.25;
};
closed = 0;
nodes = (
(303,107,l),
(1002,107,l)
);
}
);
};
layerId = m002;
shapes = (
{
closed = 1;
nodes = (
(1113,700,l),
(858,700,l),
(714,450,l),
(682,403,o),
(650,366,o),
(614,346,cs),
(563,318,o),
(545,315,o),
(507,315,c),
(590,459,l),
(598,473,o),
(606,486,o),
(614,500,c),
(622,514,l),
(697,634,o),
(569,700,o),
(425,700,c),
(342,700,l),
(267,700,o),
(168,658,o),
(143,570,c),
(276,551,l),
(291,631,o),
(326,666,o),
(363,666,c),
(402,666,o),
(425,598,o),
(379,507,c),
(311,389,l),
(250,432,o),
(276,551,o),
(276,551,c),
(256,563,o),
(151,585,o),
(143,570,c),
(104,417,o),
(211,394,o),
(288,352,c),
(206,214,l),
(173,166,o),
(175,176,o),
(111,173,c),
(98,173,l),
(0,0,l),
(197,0,l),
(300,0,o),
(361,43,o),
(420,159,c),
(490,283,l),
(523,271,o),
(568,278,o),
(583,283,cs),
(598,288,o),
(614,292,o),
(629,301,c),
(530,132,l),
(487,59,o),
(545,0,o),
(622,0,c),
(897,0,l),
(920,42,l),
(803,42,l),
(757,42,o),
(745,67,o),
(771,109,c),
(858,261,l),
(866,274,o),
(874,288,o),
(882,301,c),
(891,316,o),
(899,331,o),
(908,346,c)
);
}
);
width = 1113;
}
);
unicode = 72;
},
{
glyphname = I;
lastChange = "2024-10-29 03:28:54 +0000";
layers = (
{
layerId = m01;
shapes = (
{
closed = 1;
nodes = (
(574,695,l),
(522,705,o),
(466,727,o),
(405,756,c),
(286,815,o),
(195,765,o),
(121,715,c),
(28,647,o),
(-13,520,o),
(30,416,c),
(95,301,o),
(179,248,o),
(321,334,c),
(468,427,l),
(468,472,l),
(317,376,l),
(254,336,o),
(170,361,o),
(145,464,c),
(116,589,o),
(277,688,o),
(452,624,c),
(516,602,o),
(574,596,o),
(632,602,c),
(641,583,o),
(637,554,o),
(611,504,c),
(439,212,l),
(402,151,o),
(356,113,o),
(293,109,c),
(191,111,l),
(127,0,l),
(304,-2,l),
(407,-2,o),
(468,43,o),
(525,157,c),
(698,460,l),
(737,532,o),
(749,567,o),
(791,565,c),
(843,565,l),
(922,699,l)
);
}
);
width = 954;
},
{
background = {
shapes = (
{
attr = {
strokeWidth = 0.25;
};
closed = 1;
nodes = (
(1029,800,l),
(445,-206,l),
(-561,-206,l),
(18,800,l)
);
},
{
attr = {
strokeWidth = 0.25;
};
closed = 0;
nodes = (
(-529,-147,l),
(483,-147,l)
);
},
{
attr = {
strokeWidth = 0.25;
};
closed = 0;
nodes = (
(-491,-82,l),
(516,-82,l)
);
},
{
attr = {
strokeWidth = 0.25;
};
closed = 0;
nodes = (
(-453,-17,l),
(554,-17,l)
);
},
{
attr = {
strokeWidth = 0.25;
};
closed = 0;
nodes = (
(-421,42,l),
(592,42,l)
);
},
{
attr = {
strokeWidth = 0.25;
};
closed = 0;
nodes = (
(-383,107,l),
(-69,107,l)
);
},
{
attr = {
strokeWidth = 0.25;
};
closed = 0;
nodes = (
(-345,173,l),
(662,173,l)
);
},
{
attr = {
strokeWidth = 0.25;
};
closed = 0;
nodes = (
(-307,233,l),
(700,233,l)
);
},
{
attr = {
strokeWidth = 0.25;
};
closed = 0;
nodes = (
(-275,298,l),
(738,298,l)
);
},
{
attr = {
strokeWidth = 0.25;
};
closed = 0;
nodes = (
(-237,362,l),
(776,362,l)
);
},
{
attr = {
strokeWidth = 0.25;
};
closed = 0;
nodes = (
(-198,422,l),
(808,422,l)
);
},
{
attr = {
strokeWidth = 0.25;
};
closed = 0;
nodes = (
(-160,487,l),
(846,487,l)
);
},
{
attr = {
strokeWidth = 0.25;
};
closed = 0;
nodes = (
(-128,551,l),
(884,551,l)
);
},
{
attr = {
strokeWidth = 0.25;
};
closed = 0;
nodes = (
(-90,611,l),
(916,611,l)
);
},
{
attr = {
strokeWidth = 0.25;
};
closed = 0;
nodes = (
(-52,676,l),
(954,676,l)
);
},
{
attr = {
strokeWidth = 0.25;
};
closed = 0;
nodes = (
(-20,735,l),
(992,735,l)
);
},
{
attr = {
strokeWidth = 0.25;
};
closed = 0;
nodes = (
(965,800,l),
(380,-206,l)
);
},
{
attr = {
strokeWidth = 0.25;
};
closed = 0;
nodes = (
(840,800,l),
(256,-206,l)
);
},
{
attr = {
strokeWidth = 0.25;
};
closed = 0;
nodes = (
(776,800,l),
(191,-206,l)
);
},
{
attr = {
strokeWidth = 0.25;
};
closed = 0;
nodes = (
(711,800,l),
(132,-206,l)
);
},
{
attr = {
strokeWidth = 0.25;
};
closed = 0;
nodes = (
(651,800,l),
(67,-206,l)
);
},
{
attr = {
strokeWidth = 0.25;
};
closed = 0;
nodes = (
(587,800,l),
(2,-206,l)
);
},
{
attr = {
strokeWidth = 0.25;
};
closed = 0;
nodes = (
(522,800,l),
(-57,-206,l)
);
},
{
attr = {
strokeWidth = 0.25;
};
closed = 0;
nodes = (
(461,800,l),
(-122,-206,l)
);
},
{
attr = {
strokeWidth = 0.25;
};
closed = 0;
nodes = (
(396,800,l),
(-187,-206,l)
);
},
{
attr = {
strokeWidth = 0.25;
};
closed = 0;
nodes = (
(331,800,l),
(-248,-206,l)
);
},
{
attr = {
strokeWidth = 0.25;
};
closed = 0;
nodes = (
(272,800,l),
(-313,-206,l)
);
},
{
attr = {
strokeWidth = 0.25;
};
closed = 0;
nodes = (
(207,800,l),
(-372,-206,l)
);
},
{
attr = {
strokeWidth = 0.25;
};
closed = 0;
nodes = (
(142,800,l),
(-437,-206,l)
);
},
{
attr = {
strokeWidth = 0.25;
};
closed = 0;
nodes = (
(83,800,l),
(-502,-206,l)
);
},
{
attr = {
strokeWidth = 0.25;
};
closed = 0;
nodes = (
(-69,107,l),
(630,107,l)
);
}
);
};
layerId = m002;
shapes = (
{
closed = 1;
nodes = (
(412,700,l),
(386,700,o),
(359,700,o),
(333,700,c),
(284,700,o),
(134,698,o),
(68,639,cs),
(6,584,o),
(-17,500,o),
(12,416,cs),
(55,293,o),
(269,249,o),
(354,391,cs),
(419,500,l),
(364,479,l),
(335,435,ls),
(302,385,o),
(185,347,o),
(161,449,cs),
(144,520,o),
(203,597,o),
(380,585,c),
(418,584,o),
(455,583,o),
(493,582,c),
(478,556,o),
(464,530,o),
(449,504,c),
(277,212,l),
(253,172,o),
(231,173,o),
(168,173,c),
(146,173,l),
(45,0,l),
(262,0,l),
(365,0,o),
(431,27,o),
(503,157,c),
(676,460,l),
(697,495,o),
(717,530,o),
(738,565,c),
(767,615,l),
(818,700,l)
);
}
);
width = 818;
}
);
unicode = 73;
},
{
glyphname = J;
lastChange = "2024-10-29 10:49:25 +0000";
layers = (
{
layerId = m01;
shapes = (
{
closed = 1;
nodes = (
(952,525,o),
(893,643,o),
(786,686,c),
(786,686,o),
(743,700,o),
(682,700,c),
(586,699,o),
(491,699,o),
(395,698,c),
(355,627,l),
(392,627,o),
(429,627,o),
(466,627,c),
(480,627,o),
(493,623,o),
(500,611,c),
(232,409,o),
(55,577,o),
(55,577,c),
(55,577,o),
(81,550,o),
(124,520,cs),
(198,467,o),
(324,405,o),
(452,457,c),
(449,453,o),
(447,448,o),
(444,444,c),
(442,441,o),
(441,439,o),
(439,436,c),
(309,214,l),
(275,152,o),
(230,116,o),
(166,111,c),
(131,112,o),
(96,113,o),
(61,114,c),
(0,2,l),
(58,1,o),
(117,1,o),
(175,0,c),
(277,0,o),
(339,45,o),
(398,159,c),
(568,461,l),
(611,534,o),
(625,564,o),
(664,573,c),
(725,586,l),
(859,598,o),
(952,525,o),
(952,525,c)
);
}
);
width = 952;
},
{
layerId = m002;
shapes = (
{
closed = 1;
nodes = (
(950,525,o),
(963,662,o),
(784,700,c),
(762,703,o),
(741,700,o),
(680,700,c),
(474,693,o),
(173,747,o),
(62,583,c),
(188,582,l),
(173,707,o),
(358,669,o),
(464,627,cs),
(478,621,o),
(483,619,o),
(499,613,c),
(231,411,o),
(188,582,o),
(188,582,c),
(116,586,o),
(74,602,o),
(62,583,cs),
(-14,463,o),
(214,279,o),
(434,447,c),
(490,484,o),
(550,523,o),
(603,574,c),
(558,516,o),
(518,484,o),
(433,427,c),
(267,144,l),
(222,82,o),
(197,61,o),
(133,61,cs),
(65,61,o),
(116,223,o),
(128,266,c),
(31,306,l),
(-55,17,o),
(56,-2,o),
(173,0,c),
(275,0,o),
(447,7,o),
(536,159,c),
(706,461,l),
(722,488,o),
(738,515,o),
(754,542,c),
(790,598,l),
(896,609,o),
(950,525,o),
(950,525,c)
);
}
);
width = 950;
}
);
unicode = 74;
},
{
glyphname = K;
lastChange = "2024-10-29 10:45:57 +0000";
layers = (
{
layerId = m01;
shapes = (
{
attr = {
fill = 1;
};
closed = 1;
nodes = (
(1008,-61,o),
(1014,-41,o),
(1016,-12,cs),
(1022,58,o),
(1006,181,o),
(832,193,c),
(729,199,o),
(668,233,o),
(630,271,c),
(664,287,o),
(694,315,o),
(719,357,c),
(921,691,o),
(1164,657,o),
(1221,637,c),
(1158,660,o),
(851,712,o),
(689,496,c),
(643,435,o),
(584,396,o),
(528,384,c),
(571,460,l),
(614,533,o),
(624,567,o),
(664,567,c),
(717,567,l),
(743,611,o),
(768,655,o),
(794,699,c),
(398,695,l),
(378,664,l),
(311,651,o),
(190,591,o),
(223,441,cs),
(244,346,o),
(255,326,o),
(346,273,c),
(314,214,l),
(278,151,o),
(232,116,o),
(168,111,c),
(66,114,l),
(2,2,l),
(179,0,l),
(280,0,o),
(343,44,o),
(400,159,c),
(446,239,l),
(450,239,o),
(456,239,o),
(460,239,c),
(507,239,o),
(555,239,o),
(601,258,c),
(628,196,o),
(680,132,o),
(780,123,c),
(979,111,o),
(1008,-61,o),
(1008,-61,c)
);
},
{
attr = {
fill = 1;
};
closed = 1;
nodes = (
(382,403,o),
(357,426,o),
(345,462,c),
(316,548,o),
(355,609,o),
(416,624,c),
(433,624,o),
(449,624,o),
(466,624,c),
(507,624,o),
(530,596,o),
(483,506,c),
(416,389,l)
);
}
);
width = 1233;
},
{
background = {
shapes = (
{
attr = {
strokeWidth = 0.25;
};
closed = 1;
nodes = (
(1321,800,l),
(737,-206,l),
(-269,-206,l),
(310,800,l)
);
},
{
attr = {
strokeWidth = 0.25;
};
closed = 0;
nodes = (
(-237,-147,l),
(775,-147,l)
);
},
{
attr = {
strokeWidth = 0.25;
};
closed = 0;
nodes = (
(-199,-82,l),
(808,-82,l)
);
},
{
attr = {
strokeWidth = 0.25;
};
closed = 0;
nodes = (
(-161,-17,l),
(846,-17,l)
);
},
{
attr = {
strokeWidth = 0.25;
};
closed = 0;
nodes = (
(-129,42,l),
(884,42,l)
);
},
{
attr = {
strokeWidth = 0.25;
};
closed = 0;
nodes = (
(-91,107,l),
(223,107,l)
);
},
{
attr = {
strokeWidth = 0.25;
};
closed = 0;
nodes = (
(-53,173,l),
(954,173,l)
);
},
{
attr = {
strokeWidth = 0.25;
};
closed = 0;
nodes = (
(-15,233,l),
(992,233,l)
);
},
{
attr = {
strokeWidth = 0.25;
};
closed = 0;
nodes = (
(17,298,l),
(1030,298,l)
);
},
{
attr = {
strokeWidth = 0.25;
};
closed = 0;
nodes = (
(55,362,l),
(1068,362,l)
);
},
{
attr = {
strokeWidth = 0.25;
};
closed = 0;
nodes = (
(94,422,l),
(1100,422,l)
);
},
{
attr = {
strokeWidth = 0.25;
};
closed = 0;
nodes = (
(132,487,l),
(1138,487,l)
);
},
{
attr = {
strokeWidth = 0.25;
};
closed = 0;
nodes = (
(164,551,l),
(1176,551,l)
);
},
{
attr = {
strokeWidth = 0.25;
};
closed = 0;
nodes = (
(202,611,l),
(1208,611,l)
);
},
{
attr = {
strokeWidth = 0.25;
};
closed = 0;
nodes = (
(240,676,l),
(1246,676,l)
);
},
{
attr = {
strokeWidth = 0.25;
};
closed = 0;
nodes = (
(272,735,l),
(1284,735,l)
);
},
{
attr = {
strokeWidth = 0.25;
};
closed = 0;
nodes = (
(1257,800,l),
(672,-206,l)
);
},
{
attr = {
strokeWidth = 0.25;
};
closed = 0;
nodes = (
(1132,800,l),
(548,-206,l)
);
},
{
attr = {
strokeWidth = 0.25;
};
closed = 0;
nodes = (
(1068,800,l),
(483,-206,l)
);
},
{
attr = {
strokeWidth = 0.25;
};
closed = 0;
nodes = (
(1003,800,l),
(424,-206,l)
);
},
{
attr = {
strokeWidth = 0.25;
};
closed = 0;
nodes = (
(943,800,l),
(359,-206,l)
);
},
{
attr = {
strokeWidth = 0.25;
};
closed = 0;
nodes = (
(879,800,l),
(294,-206,l)
);
},
{
attr = {
strokeWidth = 0.25;
};
closed = 0;
nodes = (
(814,800,l),
(235,-206,l)
);
},
{
attr = {
strokeWidth = 0.25;
};
closed = 0;
nodes = (
(753,800,l),
(170,-206,l)
);
},
{
attr = {
strokeWidth = 0.25;
};
closed = 0;
nodes = (
(688,800,l),
(105,-206,l)
);
},
{
attr = {
strokeWidth = 0.25;
};
closed = 0;
nodes = (
(623,800,l),
(44,-206,l)
);
},
{
attr = {
strokeWidth = 0.25;
};
closed = 0;
nodes = (
(564,800,l),
(-21,-206,l)
);
},
{
attr = {
strokeWidth = 0.25;
};
closed = 0;
nodes = (
(499,800,l),
(-80,-206,l)
);
},
{
attr = {
strokeWidth = 0.25;
};
closed = 0;
nodes = (
(434,800,l),
(-145,-206,l)
);
},
{
attr = {
strokeWidth = 0.25;
};
closed = 0;
nodes = (
(375,800,l),
(-210,-206,l)
);
},
{
attr = {
strokeWidth = 0.25;
};
closed = 0;
nodes = (
(223,107,l),
(922,107,l)
);
}
);
};
layerId = m002;
shapes = (
{
attr = {
fill = "1";
};
closed = 1;
nodes = (
(827,-98,o),
(918,-98,o),
(1008,-98,c),
(1062,29,o),
(1010,181,o),
(832,193,c),
(729,199,o),
(687,220,o),
(649,258,c),
(694,270,o),
(778,295,o),
(839,393,cs),
(1010,668,o),
(1092,634,o),
(1199,568,c),
(1105,785,o),
(851,712,o),
(689,496,c),
(643,435,o),
(636,427,o),
(596,421,c),
(618,460,l),
(639,496,o),
(649,512,o),
(670,548,c),
(678,564,l),
(729,653,o),
(628,700,o),
(520,700,c),
(408,700,l),
(326,700,l),
(188,700,o),
(95,631,o),
(111,467,cs),
(121,367,o),
(194,309,o),
(256,273,c),
(199,167,l),
(163,104,o),
(142,116,o),
(78,111,c),
(66,111,l),
(2,0,l),
(223,0,l),
(324,0,o),
(387,44,o),
(444,159,c),
(487,230,l),
(493,230,o),
(498,229,o),
(504,229,c),
(510,229,o),
(515,229,o),
(521,229,c),
(548,167,o),
(617,61,o),
(717,51,cs),
(822,40,o),
(737,-98,o),
(737,-98,c)
);
},
{
attr = {
fill = "1";
};
closed = 1;
nodes = (
(300,426,o),
(248,456,o),
(228,491,cs),
(184,568,o),
(209,643,o),
(272,657,cs),
(322,668,o),
(345,666,o),
(384,634,c),
(408,610,o),
(440,584,o),
(393,506,c),
(340,424,l)
);
}
);
width = 1226;
}
);
unicode = 75;
},
{
glyphname = L;
lastChange = "2024-10-29 15:58:04 +0000";
layers = (
{
layerId = m01;
shapes = (
{
closed = 1;
nodes = (
(722,291,l),
(697,250,l),
(867,250,l),
(867,250,o),
(870,250,o),
(870,250,c),
(944,250,o),
(1008,185,o),
(972,83,c),
(929,-38,o),
(740,-33,o),
(627,116,c),
(576,183,o),
(515,223,o),
(450,249,c),
(570,459,l),
(612,532,o),
(624,569,o),
(665,566,c),
(717,566,l),
(794,700,l),
(395,695,l),
(356,625,l),
(468,625,l),
(506,623,o),
(529,595,o),
(484,505,c),
(348,275,l),
(231,291,o),
(127,270,o),
(92,257,c),
(107,263,o),
(135,269,o),
(172,270,cs),
(214,270,o),
(267,263,o),
(327,237,c),
(310,211,l),
(274,150,o),
(231,114,o),
(168,109,c),
(133,110,o),
(99,111,o),
(64,112,c),
(0,1,l),
(59,0,o),
(118,-1,o),
(177,-2,c),
(279,-2,o),
(340,44,o),
(399,157,c),
(415,187,l),
(474,142,o),
(538,75,o),
(594,-22,c),
(663,-135,o),
(768,-142,o),
(855,-142,c),
(972,-135,o),
(1076,-52,o),
(1096,62,c),
(1137,304,o),
(896,288,o),
(896,288,c)
);
}
);
width = 1101;
},
{
background = {
shapes = (
{
attr = {
strokeWidth = 0.25;
};
closed = 1;
nodes = (
(1286,800,l),
(702,-206,l),
(-304,-206,l),
(275,800,l)
);
},
{
attr = {
strokeWidth = 0.25;
};
closed = 0;
nodes = (
(-272,-147,l),
(740,-147,l)
);
},
{
attr = {
strokeWidth = 0.25;
};
closed = 0;
nodes = (
(-234,-82,l),
(773,-82,l)
);
},
{
attr = {
strokeWidth = 0.25;
};
closed = 0;
nodes = (
(-196,-17,l),
(811,-17,l)
);
},
{
attr = {
strokeWidth = 0.25;
};
closed = 0;
nodes = (
(-164,42,l),
(849,42,l)
);
},
{
attr = {
strokeWidth = 0.25;
};
closed = 0;
nodes = (
(-126,107,l),
(887,107,l)
);
},
{
attr = {
strokeWidth = 0.25;
};
closed = 0;
nodes = (
(-88,173,l),
(919,173,l)
);
},
{
attr = {
strokeWidth = 0.25;
};
closed = 0;
nodes = (
(-50,233,l),
(957,233,l)
);
},
{
attr = {
strokeWidth = 0.25;
};
closed = 0;
nodes = (
(-18,298,l),
(995,298,l)
);
},
{
attr = {
strokeWidth = 0.25;
};
closed = 0;
nodes = (
(20,362,l),
(1033,362,l)
);
},
{
attr = {
strokeWidth = 0.25;
};
closed = 0;
nodes = (
(59,422,l),
(1065,422,l)
);
},
{
attr = {
strokeWidth = 0.25;
};
closed = 0;
nodes = (
(97,487,l),
(1103,487,l)
);
},
{
attr = {
strokeWidth = 0.25;
};
closed = 0;
nodes = (
(129,551,l),
(1141,551,l)
);
},
{
attr = {
strokeWidth = 0.25;
};
closed = 0;
nodes = (
(167,611,l),
(1173,611,l)
);
},
{
attr = {
strokeWidth = 0.25;
};
closed = 0;
nodes = (
(205,676,l),
(1211,676,l)
);
},
{
attr = {
strokeWidth = 0.25;
};
closed = 0;
nodes = (
(237,735,l),
(1249,735,l)
);
},
{
attr = {
strokeWidth = 0.25;
};
closed = 0;
nodes = (
(1222,800,l),
(637,-206,l)
);
},
{
attr = {
strokeWidth = 0.25;
};
closed = 0;
nodes = (
(1097,800,l),
(513,-206,l)
);
},
{
attr = {
strokeWidth = 0.25;
};
closed = 0;
nodes = (
(1033,800,l),
(448,-206,l)
);
},
{
attr = {
strokeWidth = 0.25;
};
closed = 0;
nodes = (
(968,800,l),
(389,-206,l)
);
},
{
attr = {
strokeWidth = 0.25;
};
closed = 0;
nodes = (
(908,800,l),
(324,-206,l)
);
},
{
attr = {
strokeWidth = 0.25;
};
closed = 0;
nodes = (
(844,800,l),
(259,-206,l)
);
},
{
attr = {
strokeWidth = 0.25;
};
closed = 0;
nodes = (
(779,800,l),
(200,-206,l)
);
},
{
attr = {
strokeWidth = 0.25;
};
closed = 0;
nodes = (
(718,800,l),
(135,-206,l)
);
},
{
attr = {
strokeWidth = 0.25;
};
closed = 0;
nodes = (
(653,800,l),
(70,-206,l)
);
},
{
attr = {
strokeWidth = 0.25;
};
closed = 0;
nodes = (
(588,800,l),
(9,-206,l)
);
},
{
attr = {
strokeWidth = 0.25;
};
closed = 0;
nodes = (
(529,800,l),
(-56,-206,l)
);
},
{
attr = {
strokeWidth = 0.25;
};
closed = 0;
nodes = (
(464,800,l),
(-115,-206,l)
);
},
{
attr = {
strokeWidth = 0.25;
};
closed = 0;
nodes = (
(399,800,l),
(-180,-206,l)
);
},
{
attr = {
strokeWidth = 0.25;
};
closed = 0;
nodes = (
(340,800,l),
(-245,-206,l)
);
},
{
attr = {
strokeWidth = 0.25;
};
closed = 1;
nodes = (
(1286,800,l),
(702,-206,l),
(-304,-206,l),
(275,800,l)
);
},
{
attr = {
strokeWidth = 0.25;
};
closed = 0;
nodes = (
(-272,-147,l),
(740,-147,l)
);
},
{
attr = {
strokeWidth = 0.25;
};
closed = 0;
nodes = (
(-234,-82,l),
(773,-82,l)
);
},
{
attr = {
strokeWidth = 0.25;
};
closed = 0;
nodes = (
(-196,-17,l),
(811,-17,l)
);
},
{
attr = {
strokeWidth = 0.25;
};
closed = 0;
nodes = (
(-164,42,l),
(849,42,l)
);
},
{
attr = {
strokeWidth = 0.25;
};
closed = 0;
nodes = (
(-126,107,l),
(887,107,l)
);
},
{
attr = {
strokeWidth = 0.25;
};
closed = 0;
nodes = (
(-88,173,l),
(919,173,l)
);
},
{
attr = {
strokeWidth = 0.25;
};
closed = 0;
nodes = (
(-50,233,l),
(957,233,l)
);
},
{
attr = {
strokeWidth = 0.25;
};
closed = 0;
nodes = (
(-18,298,l),
(995,298,l)
);
},
{
attr = {
strokeWidth = 0.25;
};
closed = 0;
nodes = (
(20,362,l),
(1033,362,l)
);
},
{
attr = {
strokeWidth = 0.25;
};
closed = 0;
nodes = (
(59,422,l),
(1065,422,l)
);
},
{
attr = {
strokeWidth = 0.25;
};
closed = 0;
nodes = (
(97,487,l),
(1103,487,l)
);
},
{
attr = {
strokeWidth = 0.25;
};
closed = 0;
nodes = (
(129,551,l),
(1141,551,l)
);
},
{
attr = {
strokeWidth = 0.25;
};
closed = 0;
nodes = (
(167,611,l),
(1173,611,l)
);
},
{
attr = {
strokeWidth = 0.25;
};
closed = 0;
nodes = (
(205,676,l),
(1211,676,l)
);
},
{
attr = {
strokeWidth = 0.25;
};
closed = 0;
nodes = (
(237,735,l),
(1249,735,l)
);
},
{
attr = {
strokeWidth = 0.25;
};
closed = 0;
nodes = (
(1222,800,l),
(637,-206,l)
);
},
{
attr = {
strokeWidth = 0.25;
};
closed = 0;
nodes = (
(1097,800,l),
(513,-206,l)
);
},
{
attr = {
strokeWidth = 0.25;
};
closed = 0;
nodes = (
(1033,800,l),
(448,-206,l)
);
},
{
attr = {
strokeWidth = 0.25;
};
closed = 0;
nodes = (
(968,800,l),
(389,-206,l)
);
},
{
attr = {
strokeWidth = 0.25;
};
closed = 0;
nodes = (
(908,800,l),
(324,-206,l)
);
},
{
attr = {
strokeWidth = 0.25;
};
closed = 0;
nodes = (
(844,800,l),
(259,-206,l)
);
},
{
attr = {
strokeWidth = 0.25;
};
closed = 0;
nodes = (
(779,800,l),
(200,-206,l)
);
},
{
attr = {
strokeWidth = 0.25;
};
closed = 0;
nodes = (
(718,800,l),
(135,-206,l)
);
},
{
attr = {
strokeWidth = 0.25;
};
closed = 0;
nodes = (
(653,800,l),
(70,-206,l)
);
},
{
attr = {
strokeWidth = 0.25;
};
closed = 0;
nodes = (
(588,800,l),
(9,-206,l)
);
},
{
attr = {
strokeWidth = 0.25;
};
closed = 0;
nodes = (
(529,800,l),
(-56,-206,l)
);
},
{
attr = {
strokeWidth = 0.25;
};
closed = 0;
nodes = (
(464,800,l),
(-115,-206,l)
);
},
{
attr = {
strokeWidth = 0.25;
};
closed = 0;
nodes = (
(399,800,l),
(-180,-206,l)
);
},
{
attr = {
strokeWidth = 0.25;
};
closed = 0;
nodes = (
(340,800,l),
(-245,-206,l)
);
}
);
};
layerId = m002;
shapes = (
{
closed = 1;
nodes = (
(699,291,l),
(674,250,l),
(844,250,l),
(844,250,o),
(847,250,o),
(847,250,c),
(921,250,o),
(950,176,o),
(915,83,cs),
(890,17,o),
(787,-17,o),
(674,98,c),
(610,165,o),
(588,186,o),
(523,249,c),
(647,459,l),
(689,532,o),
(727,611,o),
(770,611,c),
(819,611,l),
(871,700,l),
(407,700,l),
(356,611,l),
(396,611,l),
(447,609,o),
(471,598,o),
(418,505,c),
(340,371,l),
(128,508,o),
(0,435,o),
(0,263,c),
(18,263,o),
(53,265,o),
(92,268,c),
(80,479,o),
(182,353,o),
(275,258,c),
(248,211,l),
(212,150,o),
(198,116,o),
(151,116,cs),
(98,116,o),
(95,215,o),
(92,268,c),
(0,263,l),
(-6,62,o),
(102,-6,o),
(250,0,c),
(352,0,o),
(388,12,o),
(435,96,c),
(438,101,l),
(485,41,o),
(513,18,o),
(563,-42,cs),
(649,-145,o),
(745,-142,o),
(832,-142,c),
(949,-135,o),
(1053,-52,o),
(1073,62,c),
(1115,313,o),
(873,288,o),
(873,288,c)
);
}
);
width = 1078;
}
);
unicode = 76;
},
{
glyphname = M;
lastChange = "2024-10-29 16:08:33 +0000";
layers = (
{
layerId = m01;
shapes = (
{
closed = 1;
nodes = (
(1303,581,l),
(1109,581,l),
(742,328,l),
(742,328,o),
(725,331,o),
(714,347,c),
(679,402,o),
(830,701,o),
(830,701,c),
(474,701,l),
(456,635,l),
(428,617,o),
(400,592,o),
(377,561,c),
(286,440,o),
(134,436,o),
(100,534,c),
(70,617,o),
(122,669,o),
(181,669,c),
(181,669,o),
(181,669,o),
(322,669,c),
(301,701,l),
(254,701,o),
(208,701,o),
(161,701,c),
(161,701,o),
(-37,701,o),
(-2,518,c),
(16,425,o),
(97,358,o),
(193,352,c),
(265,352,o),
(347,358,o),
(402,449,c),
(447,521,o),
(493,572,o),
(536,608,c),
(501,545,o),
(466,481,o),
(431,418,c),
(256,100,l),
(230,53,o),
(265,-2,o),
(316,0,c),
(611,9,l),
(630,48,l),
(433,48,l),
(409,48,o),
(392,75,o),
(406,98,c),
(575,400,l),
(579,387,o),
(584,372,o),
(592,361,c),
(650,272,o),
(723,290,o),
(771,314,c),
(1052,484,l),
(1070,495,o),
(1089,502,o),
(1109,508,c),
(872,79,l),
(850,38,o),
(879,-11,o),
(927,-9,c),
(1189,0,l),
(1208,34,l),
(1033,34,l),
(1010,34,o),
(995,59,o),
(1006,77,c)
);
}
);
width = 1368;
},
{
background = {
shapes = (
{
attr = {
strokeWidth = 0.25;
};
closed = 1;
nodes = (
(1444,800,l),
(860,-206,l),
(-146,-206,l),
(433,800,l)
);
},
{
attr = {
strokeWidth = 0.25;
};
closed = 0;
nodes = (
(-114,-147,l),
(898,-147,l)
);
},
{
attr = {
strokeWidth = 0.25;
};
closed = 0;
nodes = (
(-76,-82,l),
(931,-82,l)
);
},
{
attr = {
strokeWidth = 0.25;
};
closed = 0;
nodes = (
(-38,-17,l),
(969,-17,l)
);
},
{
attr = {
strokeWidth = 0.25;
};
closed = 0;
nodes = (
(-6,42,l),
(1007,42,l)
);
},
{
attr = {
strokeWidth = 0.25;
};
closed = 0;
nodes = (
(32,107,l),
(1045,107,l)
);
},
{
attr = {
strokeWidth = 0.25;
};
closed = 0;
nodes = (
(70,173,l),
(1077,173,l)
);
},
{
attr = {
strokeWidth = 0.25;
};
closed = 0;
nodes = (
(108,233,l),
(1115,233,l)
);
},
{
attr = {
strokeWidth = 0.25;
};
closed = 0;
nodes = (
(140,298,l),
(1153,298,l)
);
},
{
attr = {
strokeWidth = 0.25;
};
closed = 0;
nodes = (
(178,362,l),
(1191,362,l)
);
},
{
attr = {
strokeWidth = 0.25;
};
closed = 0;
nodes = (
(217,422,l),
(1223,422,l)
);
},
{
attr = {
strokeWidth = 0.25;
};
closed = 0;
nodes = (
(255,487,l),
(1261,487,l)
);
},
{
attr = {
strokeWidth = 0.25;
};
closed = 0;
nodes = (
(287,551,l),
(1299,551,l)
);
},
{
attr = {
strokeWidth = 0.25;
};
closed = 0;
nodes = (
(325,611,l),
(1331,611,l)
);
},
{
attr = {
strokeWidth = 0.25;
};
closed = 0;
nodes = (
(363,676,l),
(1369,676,l)
);
},
{
attr = {
strokeWidth = 0.25;
};
closed = 0;
nodes = (
(395,735,l),
(1407,735,l)
);
},
{
attr = {
strokeWidth = 0.25;
};
closed = 0;
nodes = (
(1380,800,l),
(795,-206,l)
);
},
{
attr = {
strokeWidth = 0.25;
};
closed = 0;
nodes = (
(1255,800,l),
(671,-206,l)
);
},
{
attr = {
strokeWidth = 0.25;
};
closed = 0;
nodes = (
(1191,800,l),
(606,-206,l)
);
},
{
attr = {
strokeWidth = 0.25;
};
closed = 0;
nodes = (
(1126,800,l),
(547,-206,l)
);
},
{
attr = {
strokeWidth = 0.25;
};
closed = 0;
nodes = (
(1066,800,l),
(482,-206,l)
);
},
{
attr = {
strokeWidth = 0.25;
};
closed = 0;
nodes = (
(1002,800,l),
(417,-206,l)
);
},
{
attr = {
strokeWidth = 0.25;
};
closed = 0;
nodes = (
(937,800,l),
(358,-206,l)
);
},
{
attr = {
strokeWidth = 0.25;
};
closed = 0;
nodes = (
(876,800,l),
(293,-206,l)
);
},
{
attr = {
strokeWidth = 0.25;
};
closed = 0;
nodes = (
(811,800,l),
(228,-206,l)
);
},
{
attr = {
strokeWidth = 0.25;
};
closed = 0;
nodes = (
(746,800,l),
(167,-206,l)
);
},
{
attr = {
strokeWidth = 0.25;
};
closed = 0;
nodes = (
(687,800,l),
(102,-206,l)
);
},
{
attr = {
strokeWidth = 0.25;
};
closed = 0;
nodes = (
(622,800,l),
(43,-206,l)
);
},
{
attr = {
strokeWidth = 0.25;
};
closed = 0;
nodes = (
(557,800,l),
(-22,-206,l)
);
},
{
attr = {
strokeWidth = 0.25;
};
closed = 0;
nodes = (
(498,800,l),
(-87,-206,l)
);
}
);
};
layerId = m002;
shapes = (
{
closed = 1;
nodes = (
(1385,700,l),
(1131,700,l),
(786,361,l),
(754,333,o),
(730,336,o),
(722,347,c),
(687,402,o),
(883,700,o),
(883,700,c),
(482,701,l),
(455,700,l),
(420,613,o),
(408,592,o),
(385,561,c),
(294,440,o),
(203,456,o),
(169,554,c),
(148,612,o),
(156,665,o),
(216,665,cs),
(295,665,o),
(341,653,o),
(375,562,c),
(400,603,l),
(366,678,o),
(315,703,o),
(169,701,cs),
(110,700,o),
(-29,675,o),
(6,518,c),
(24,425,o),
(105,358,o),
(201,352,c),
(273,352,o),
(273,352,o),
(339,376,c),
(469,424,o),
(511,528,o),
(536,592,c),
(505,448,o),
(428,400,o),
(339,363,c),
(194,100,l),
(153,25,o),
(211,-1,o),
(264,0,c),
(489,0,l),
(513,42,l),
(365,42,l),
(341,42,o),
(322,59,o),
(342,98,c),
(560,472,l),
(542,428,o),
(529,333,o),
(529,322,c),
(529,100,o),
(733,239,o),
(787,292,c),
(961,460,l),
(979,476,o),
(1001,502,o),
(1021,508,c),
(772,79,l),
(750,38,o),
(787,-2,o),
(835,0,c),
(1197,0,l),
(1216,34,l),
(1041,34,l),
(1018,34,o),
(1013,59,o),
(1024,77,c)
);
}
);
width = 1385;
}
);
unicode = 77;
},
{
glyphname = N;
lastChange = "2024-10-29 16:38:27 +0000";
layers = (
{
layerId = m01;
shapes = (
{
closed = 1;
nodes = (
(1450,702,l),
(1293,699,l),
(1065,289,l),
(1063,287,o),
(1063,283,o),
(1059,278,c),
(1042,292,o),
(1028,306,o),
(1018,323,c),
(854,567,l),
(840,587,o),
(823,607,o),
(806,621,c),
(854,621,l),
(882,693,l),
(486,691,l),
(472,693,o),
(450,693,o),
(422,691,c),
(419,691,l),
(326,685,o),
(199,654,o),
(196,523,c),
(191,340,o),
(393,359,o),
(424,359,c),
(369,362,o),
(404,497,o),
(404,497,c),
(317,492,l),
(317,492,o),
(281,494,o),
(281,528,c),
(281,564,o),
(323,564,o),
(323,564,c),
(419,567,l),
(424,607,o),
(432,632,o),
(444,652,c),
(542,652,l),
(596,649,o),
(587,601,o),
(576,578,c),
(410,189,l),
(379,111,o),
(303,58,o),
(219,53,c),
(62,44,l),
(0,-90,l),
(233,-90,l),
(369,-90,o),
(486,-1,o),
(522,128,c),
(649,511,l),
(666,567,o),
(697,609,o),
(751,617,c),
(770,607,o),
(789,590,o),
(801,567,c),
(1015,230,l),
(1040,191,o),
(1080,163,o),
(1127,158,c),
(1228,146,l),
(1214,199,l),
(1369,204,l),
(1383,235,l),
(1231,235,l),
(1211,235,o),
(1200,256,o),
(1209,272,c)
);
}
);
width = 1450;
},
{
background = {
shapes = (
{
attr = {
strokeWidth = 0.25;
};
closed = 1;
nodes = (
(1444,800,l),
(860,-206,l),
(-146,-206,l),
(433,800,l)
);
},
{
attr = {
strokeWidth = 0.25;
};
closed = 0;
nodes = (
(-114,-147,l),
(898,-147,l)
);
},
{
attr = {
strokeWidth = 0.25;
};
closed = 0;
nodes = (
(-76,-82,l),
(931,-82,l)
);
},
{
attr = {
strokeWidth = 0.25;
};
closed = 0;
nodes = (
(-38,-17,l),
(969,-17,l)
);
},
{
attr = {
strokeWidth = 0.25;
};
closed = 0;
nodes = (
(-6,42,l),
(1007,42,l)
);
},
{
attr = {
strokeWidth = 0.25;
};
closed = 0;
nodes = (
(32,107,l),
(1045,107,l)
);
},
{
attr = {
strokeWidth = 0.25;
};
closed = 0;
nodes = (
(70,173,l),
(1077,173,l)
);
},
{
attr = {
strokeWidth = 0.25;
};
closed = 0;
nodes = (
(108,233,l),
(1115,233,l)
);
},
{
attr = {
strokeWidth = 0.25;
};
closed = 0;
nodes = (
(140,298,l),
(1153,298,l)
);
},
{
attr = {
strokeWidth = 0.25;
};
closed = 0;
nodes = (
(178,362,l),
(1191,362,l)
);
},
{
attr = {
strokeWidth = 0.25;
};
closed = 0;
nodes = (
(217,422,l),
(1223,422,l)
);
},
{
attr = {
strokeWidth = 0.25;
};
closed = 0;
nodes = (
(255,487,l),
(1261,487,l)
);
},
{
attr = {
strokeWidth = 0.25;
};
closed = 0;
nodes = (
(287,551,l),
(1299,551,l)
);
},
{
attr = {
strokeWidth = 0.25;
};
closed = 0;
nodes = (
(325,611,l),
(1331,611,l)
);
},
{
attr = {
strokeWidth = 0.25;
};
closed = 0;
nodes = (
(363,676,l),
(1369,676,l)
);
},
{
attr = {
strokeWidth = 0.25;
};
closed = 0;
nodes = (
(395,735,l),
(1407,735,l)
);
},
{
attr = {
strokeWidth = 0.25;
};
closed = 0;
nodes = (
(1380,800,l),
(795,-206,l)
);
},
{
attr = {
strokeWidth = 0.25;
};
closed = 0;
nodes = (
(1255,800,l),
(671,-206,l)
);
},
{
attr = {
strokeWidth = 0.25;
};
closed = 0;
nodes = (
(1191,800,l),
(606,-206,l)
);
},
{
attr = {
strokeWidth = 0.25;
};
closed = 0;
nodes = (
(1126,800,l),
(547,-206,l)
);
},
{
attr = {
strokeWidth = 0.25;
};
closed = 0;
nodes = (
(1066,800,l),
(482,-206,l)
);
},
{
attr = {
strokeWidth = 0.25;
};
closed = 0;
nodes = (
(1002,800,l),
(417,-206,l)
);
},
{
attr = {
strokeWidth = 0.25;
};
closed = 0;
nodes = (
(937,800,l),
(358,-206,l)
);
},
{
attr = {
strokeWidth = 0.25;
};
closed = 0;
nodes = (
(876,800,l),
(293,-206,l)
);
},
{
attr = {
strokeWidth = 0.25;
};
closed = 0;
nodes = (
(811,800,l),
(228,-206,l)
);
},
{
attr = {
strokeWidth = 0.25;
};
closed = 0;
nodes = (
(746,800,l),
(167,-206,l)
);
},
{
attr = {
strokeWidth = 0.25;
};
closed = 0;
nodes = (
(687,800,l),
(102,-206,l)
);
},
{
attr = {
strokeWidth = 0.25;
};
closed = 0;
nodes = (
(622,800,l),
(43,-206,l)
);
},
{
attr = {
strokeWidth = 0.25;
};
closed = 0;
nodes = (
(557,800,l),
(-22,-206,l)
);
},
{
attr = {
strokeWidth = 0.25;
};
closed = 0;
nodes = (
(498,800,l),
(-87,-206,l)
);
}
);
};
layerId = m002;
shapes = (
{
closed = 1;
nodes = (
(1450,702,l),
(1293,699,l),
(1065,289,l),
(1063,287,o),
(1063,283,o),
(1059,278,c),
(1042,292,o),
(1028,306,o),
(1018,323,c),
(854,567,l),
(840,587,o),
(823,607,o),
(806,621,c),
(854,621,l),
(882,700,l),
(486,700,l),
(472,702,o),
(450,702,o),
(422,700,c),
(419,700,l),
(326,694,o),
(199,654,o),
(196,523,c),
(191,340,o),
(393,359,o),
(424,359,c),
(369,362,o),
(404,497,o),
(404,497,c),
(317,492,l),
(317,492,o),
(281,494,o),
(281,528,c),
(281,564,o),
(323,564,o),
(323,564,c),
(419,567,l),
(424,607,o),
(432,632,o),
(444,652,c),
(542,652,l),
(596,649,o),
(587,601,o),
(576,578,c),
(359,189,l),
(317,111,o),
(303,111,o),
(219,106,c),
(96,106,l),
(32,0,l),
(265,0,l),
(401,0,o),
(489,5,o),
(552,138,c),
(764,501,l),
(781,557,o),
(697,609,o),
(751,617,c),
(770,607,o),
(789,590,o),
(801,567,c),
(1015,230,l),
(1040,191,o),
(1080,163,o),
(1127,158,c),
(1228,146,l),
(1214,199,l),
(1369,204,l),
(1383,235,l),
(1231,235,l),
(1211,235,o),
(1200,256,o),
(1209,272,c)
);
}
);
width = 1412;
}
);
unicode = 78;
},
{
glyphname = O;
lastChange = "2024-10-27 19:28:32 +0000";
layers = (
{
layerId = m01;
shapes = (
{
attr = {
fill = 1;
strokeWidth = 1;
};
closed = 1;
nodes = (
(381,81,o),
(200,-37,o),
(137,122,c),
(34,374,o),
(317,649,o),
(317,649,c),
(317,649,o),
(-70,329,o),
(11,91,c),
(94,-146,o),
(381,81,o),
(381,81,c)
);
},
{
attr = {
fill = 1;
strokeWidth = 1;
};
closed = 1;
nodes = (
(291,616,o),
(353,706,o),
(415,642,c),
(514,540,o),
(429,353,o),
(429,353,c),
(429,353,o),
(538,574,o),
(452,675,c),
(369,773,o),
(291,616,o),
(291,616,c)
);
},
{
attr = {
fill = 1;
strokeWidth = 1;
};
closed = 1;
nodes = (
(436,440,o),
(497,308,o),
(450,236,c),
(403,167,o),
(366,134,o),
(379,79,c),
(379,79,o),
(329,146,o),
(388,220,c),
(446,293,o),
(472,308,o),
(436,440,c)
);
}
);
width = 485;
},
{
layerId = m002;
shapes = (
{
attr = {
fill = 1;
strokeWidth = 1;
};
closed = 1;
nodes = (
(381,81,o),
(200,-37,o),
(137,122,c),
(34,374,o),
(317,649,o),
(317,649,c),
(317,649,o),
(-70,329,o),
(11,91,c),
(94,-146,o),
(381,81,o),
(381,81,c)
);
},
{
attr = {
fill = 1;
strokeWidth = 1;
};
closed = 1;
nodes = (
(291,616,o),
(353,706,o),
(415,642,c),
(514,540,o),
(429,353,o),
(429,353,c),
(429,353,o),
(538,574,o),
(452,675,c),
(369,773,o),
(291,616,o),
(291,616,c)
);
},
{
attr = {
fill = 1;
strokeWidth = 1;
};
closed = 1;
nodes = (
(436,440,o),
(497,308,o),
(450,236,c),
(403,167,o),
(366,134,o),
(379,79,c),
(379,79,o),
(329,146,o),
(388,220,c),
(446,293,o),
(472,308,o),
(436,440,c)
);
}
);
width = 485;
}
);
unicode = 79;
},
{
glyphname = P;
lastChange = "2024-10-27 19:28:32 +0000";
layers = (
{
layerId = m01;
shapes = (
{
attr = {
fill = 1;
strokeWidth = 1;
};
closed = 1;
nodes = (
(492,292,o),
(654,336,o),
(586,472,c),
(531,582,o),
(343,540,o),
(343,540,c),
(445,702,l),
(364,721,l),
(212,446,l),
(212,446,o),
(516,423,o),
(539,370,c),
(565,318,o),
(492,292,o),
(492,292,c)
);
},
{
attr = {
fill = 1;
strokeWidth = 1;
};
closed = 1;
nodes = (
(269,0,l),
(285,38,l),
(139,38,l),
(120,38,o),
(110,57,o),
(118,75,c),
(348,485,l),
(233,485,l),
(8,75,l),
(-13,41,o),
(13,-3,o),
(52,0,c)
);
},
{
attr = {
fill = 1;
strokeWidth = 1;
};
closed = 1;
nodes = (
(664,263,o),
(539,449,o),
(539,449,c),
(539,449,o),
(599,318,o),
(489,292,c),
(314,247,o),
(160,459,o),
(160,459,c),
(160,459,o),
(337,198,o),
(502,232,c)
);
}
);
width = 603;
},
{
layerId = m002;
shapes = (
{
attr = {
fill = 1;
strokeWidth = 1;
};
closed = 1;
nodes = (
(492,292,o),
(654,336,o),
(586,472,c),
(531,582,o),
(343,540,o),
(343,540,c),
(445,702,l),
(364,721,l),
(212,446,l),
(212,446,o),
(516,423,o),
(539,370,c),
(565,318,o),
(492,292,o),
(492,292,c)
);
},
{
attr = {
fill = 1;
strokeWidth = 1;
};
closed = 1;
nodes = (
(269,0,l),
(285,38,l),
(139,38,l),
(120,38,o),
(110,57,o),
(118,75,c),
(348,485,l),
(233,485,l),
(8,75,l),
(-13,41,o),
(13,-3,o),
(52,0,c)
);
},
{
attr = {
fill = 1;
strokeWidth = 1;
};
closed = 1;
nodes = (
(664,263,o),
(539,449,o),
(539,449,c),
(539,449,o),
(599,318,o),
(489,292,c),
(314,247,o),
(160,459,o),
(160,459,c),
(160,459,o),
(337,198,o),
(502,232,c)
);
}
);
width = 603;
}
);
unicode = 80;
},
{
glyphname = Q;
lastChange = "2024-10-27 19:28:32 +0000";
layers = (
{
layerId = m01;
shapes = (
{
attr = {
fill = 1;
strokeWidth = 1;
};
closed = 1;
nodes = (
(582,370,o),
(653,562,o),
(493,589,c),
(238,632,o),
(40,311,o),
(40,311,c),
(40,311,o),
(259,739,o),
(498,712,c),
(734,685,o),
(582,370,o),
(582,370,c)
);
},
{
attr = {
fill = 1;
strokeWidth = 1;
};
closed = 1;
nodes = (
(48,333,o),
(-24,139,o),
(136,112,c),
(392,69,o),
(589,390,o),
(589,390,c),
(589,390,o),
(370,-38,o),
(134,-11,c),
(-104,18,o),
(48,333,o),
(48,333,c)
);
},
{
attr = {
fill = 1;
strokeWidth = 1;
};
closed = 1;
nodes = (
(452,26,o),
(557,-66,o),
(557,-66,c),
(557,-66,o),
(358,-24,o),
(461,151,c),
(486,195,o),
(557,310,o),
(478,323,c),
(395,338,o),
(218,118,o),
(218,118,c),
(181,102,l),
(235,161,o),
(385,367,o),
(505,347,c),
(589,330,o),
(603,271,o),
(527,148,c)
);
}
);
width = 631;
},
{
layerId = m002;
shapes = (
{
attr = {
fill = 1;
strokeWidth = 1;
};
closed = 1;
nodes = (
(582,370,o),
(653,562,o),
(493,589,c),
(238,632,o),
(40,311,o),
(40,311,c),
(40,311,o),
(259,739,o),
(498,712,c),
(734,685,o),
(582,370,o),
(582,370,c)
);
},
{
attr = {
fill = 1;
strokeWidth = 1;
};
closed = 1;
nodes = (
(48,333,o),
(-24,139,o),
(136,112,c),
(392,69,o),
(589,390,o),
(589,390,c),
(589,390,o),
(370,-38,o),
(134,-11,c),
(-104,18,o),
(48,333,o),
(48,333,c)
);
},
{
attr = {
fill = 1;
strokeWidth = 1;
};
closed = 1;
nodes = (
(452,26,o),
(557,-66,o),
(557,-66,c),
(557,-66,o),
(358,-24,o),
(461,151,c),
(486,195,o),
(557,310,o),
(478,323,c),
(395,338,o),
(218,118,o),
(218,118,c),
(181,102,l),
(235,161,o),
(385,367,o),
(505,347,c),
(589,330,o),
(603,271,o),
(527,148,c)
);
}
);
width = 631;
}
);
unicode = 81;
},
{
glyphname = R;
lastChange = "2024-10-27 19:28:32 +0000";
layers = (
{
layerId = m01;
shapes = (
{
attr = {
fill = 1;
strokeWidth = 1;
};
closed = 1;
nodes = (
(207,3,l),
(327,3,o),
(432,83,o),
(463,198,c),
(577,540,l),
(594,596,o),
(627,635,o),
(689,635,c),
(762,635,l),
(786,699,l),
(374,699,l),
(351,663,l),
(482,663,l),
(530,660,o),
(521,619,o),
(514,596,c),
(365,251,l),
(338,181,o),
(271,136,o),
(196,130,c),
(53,123,l),
(0,3,l)
);
},
{
attr = {
fill = 1;
strokeWidth = 1;
};
closed = 1;
nodes = (
(1174,-45,l),
(1132,44,l),
(1068,41,l),
(1020,39,o),
(970,58,o),
(937,95,c),
(736,306,l),
(692,354,o),
(627,382,o),
(561,382,c),
(465,382,l),
(486,348,l),
(575,348,l),
(619,348,o),
(659,329,o),
(689,298,c),
(951,-1,l),
(982,-34,o),
(1026,-53,o),
(1071,-50,c)
);
},
{
attr = {
fill = 1;
strokeWidth = 1;
};
closed = 1;
nodes = (
(633,357,o),
(954,303,o),
(970,515,c),
(987,708,o),
(772,696,o),
(739,699,c),
(797,694,o),
(753,554,o),
(753,554,c),
(844,554,l),
(844,554,o),
(881,551,o),
(881,518,c),
(879,476,o),
(834,479,o),
(834,479,c),
(734,481,l),
(708,340,o),
(633,357,o),
(633,357,c)
);
}
);
width = 1174;
},
{
layerId = m002;
shapes = (
{
attr = {
fill = 1;
strokeWidth = 1;
};
closed = 1;
nodes = (
(207,3,l),
(327,3,o),
(432,83,o),
(463,198,c),
(577,540,l),
(594,596,o),
(627,635,o),
(689,635,c),
(762,635,l),
(786,699,l),
(374,699,l),
(351,663,l),
(482,663,l),
(530,660,o),
(521,619,o),
(514,596,c),
(365,251,l),
(338,181,o),
(271,136,o),
(196,130,c),
(53,123,l),
(0,3,l)
);
},
{
attr = {
fill = 1;
strokeWidth = 1;
};
closed = 1;
nodes = (
(1174,-45,l),
(1132,44,l),
(1068,41,l),
(1020,39,o),
(970,58,o),
(937,95,c),
(736,306,l),
(692,354,o),
(627,382,o),
(561,382,c),
(465,382,l),
(486,348,l),
(575,348,l),
(619,348,o),
(659,329,o),
(689,298,c),
(951,-1,l),
(982,-34,o),
(1026,-53,o),
(1071,-50,c)
);
},
{
attr = {
fill = 1;
strokeWidth = 1;
};
closed = 1;
nodes = (
(633,357,o),
(954,303,o),
(970,515,c),
(987,708,o),
(772,696,o),
(739,699,c),
(797,694,o),
(753,554,o),
(753,554,c),
(844,554,l),
(844,554,o),
(881,551,o),
(881,518,c),
(879,476,o),
(834,479,o),
(834,479,c),
(734,481,l),
(708,340,o),
(633,357,o),
(633,357,c)
);
}
);
width = 1174;
}
);
unicode = 82;
},
{
glyphname = S;
lastChange = "2024-10-27 19:28:32 +0000";
layers = (
{
layerId = m01;
shapes = (
{
attr = {
fill = 1;
strokeWidth = 1;
};
closed = 1;
nodes = (
(345,-113,o),
(419,235,o),
(419,235,c),
(419,235,o),
(357,34,o),
(212,113,c),
(-21,239,o),
(20,616,o),
(20,616,c),
(20,616,o),
(-71,138,o),
(137,12,c)
);
},
{
attr = {
fill = 1;
strokeWidth = 1;
};
closed = 1;
nodes = (
(371,145,o),
(562,258,o),
(359,366,c),
(155,473,o),
(216,616,o),
(216,616,c),
(216,616,o),
(151,447,o),
(302,354,c),
(455,260,o),
(371,145,o),
(371,145,c)
);
},
{
attr = {
fill = 1;
strokeWidth = 1;
};
closed = 1;
nodes = (
(214,463,l),
(442,923,o),
(485,527,o),
(485,527,c),
(540,524,l),
(633,713,l),
(572,713,l),
(518,603,l),
(377,892,o),
(139,463,o),
(139,463,c)
);
}
);
width = 633;
},
{
layerId = m002;
shapes = (
{
attr = {
fill = 1;
strokeWidth = 1;
};
closed = 1;
nodes = (
(345,-113,o),
(419,235,o),
(419,235,c),
(419,235,o),
(357,34,o),
(212,113,c),
(-21,239,o),
(20,616,o),
(20,616,c),
(20,616,o),
(-71,138,o),
(137,12,c)
);
},
{
attr = {
fill = 1;
strokeWidth = 1;
};
closed = 1;
nodes = (
(371,145,o),
(562,258,o),
(359,366,c),
(155,473,o),
(216,616,o),
(216,616,c),
(216,616,o),
(151,447,o),
(302,354,c),
(455,260,o),
(371,145,o),
(371,145,c)
);
},
{
attr = {
fill = 1;
strokeWidth = 1;
};
closed = 1;
nodes = (
(214,463,l),
(442,923,o),
(485,527,o),
(485,527,c),
(540,524,l),
(633,713,l),
(572,713,l),
(518,603,l),
(377,892,o),
(139,463,o),
(139,463,c)
);
}
);
width = 633;
}
);
unicode = 83;
},
{
glyphname = T;
lastChange = "2024-10-27 19:28:32 +0000";
layers = (
{
layerId = m01;
shapes = (
{
attr = {
fill = 1;
strokeWidth = 1;
};
closed = 1;
nodes = (
(563,619,l),
(268,93,l),
(258,73,o),
(271,49,o),
(295,49,c),
(483,49,l),
(462,0,l),
(184,0,l),
(134,-3,o),
(101,53,o),
(127,96,c),
(415,619,l)
);
},
{
attr = {
fill = 1;
strokeWidth = 1;
};
closed = 1;
nodes = (
(0,566,o),
(188,807,o),
(456,663,c),
(720,522,o),
(818,743,o),
(818,743,c),
(818,743,o),
(814,368,o),
(486,572,c),
(154,777,o),
(0,566,o),
(0,566,c)
);
}
);
width = 818;
},
{
layerId = m002;
shapes = (
{
attr = {
fill = 1;
strokeWidth = 1;
};
closed = 1;
nodes = (
(563,619,l),
(268,93,l),
(258,73,o),
(271,49,o),
(295,49,c),
(483,49,l),
(462,0,l),
(184,0,l),
(134,-3,o),
(101,53,o),
(127,96,c),
(415,619,l)
);
},
{
attr = {
fill = 1;
strokeWidth = 1;
};
closed = 1;
nodes = (
(0,566,o),
(188,807,o),
(456,663,c),
(720,522,o),
(818,743,o),
(818,743,c),
(818,743,o),
(814,368,o),
(486,572,c),
(154,777,o),
(0,566,o),
(0,566,c)
);
}
);
width = 818;
}
);
unicode = 84;
},
{
glyphname = U;
lastChange = "2024-10-27 19:28:32 +0000";
layers = (
{
layerId = m01;
shapes = (
{
attr = {
fill = 1;
strokeWidth = 1;
};
closed = 1;
nodes = (
(41,474,o),
(-32,189,o),
(200,175,c),
(571,155,o),
(801,642,o),
(801,642,c),
(801,642,o),
(557,-1,o),
(217,2,c),
(-127,2,o),
(41,474,o),
(41,474,c)
);
},
{
attr = {
fill = 1;
strokeWidth = 1;
};
closed = 1;
nodes = (
(38,178,l),
(286,625,l),
(298,642,o),
(284,664,o),
(264,664,c),
(108,664,l),
(124,695,l),
(356,703,l),
(398,703,o),
(426,661,o),
(407,625,c),
(161,178,l)
);
}
);
width = 801;
},
{
layerId = m002;
shapes = (
{
attr = {
fill = 1;
strokeWidth = 1;
};
closed = 1;
nodes = (
(41,474,o),
(-32,189,o),
(200,175,c),
(571,155,o),
(801,642,o),
(801,642,c),
(801,642,o),
(557,-1,o),
(217,2,c),
(-127,2,o),
(41,474,o),
(41,474,c)
);
},
{
attr = {
fill = 1;
strokeWidth = 1;
};
closed = 1;
nodes = (
(38,178,l),
(286,625,l),
(298,642,o),
(284,664,o),
(264,664,c),
(108,664,l),
(124,695,l),
(356,703,l),
(398,703,o),
(426,661,o),
(407,625,c),
(161,178,l)
);
}
);
width = 801;
}
);
unicode = 85;
},
{
glyphname = V;
lastChange = "2024-10-27 19:28:32 +0000";
layers = (
{
layerId = m01;
shapes = (
{
attr = {
fill = 1;
strokeWidth = 1;
};
closed = 1;
nodes = (
(265,0,l),
(360,0,o),
(451,40,o),
(514,107,c),
(799,407,l),
(847,459,o),
(918,487,o),
(985,483,c),
(1076,479,l),
(1135,605,l),
(989,613,l),
(926,617,o),
(862,589,o),
(819,542,c),
(443,119,l),
(403,75,o),
(344,47,o),
(285,47,c),
(143,47,l),
(116,0,l)
);
},
{
attr = {
fill = 1;
strokeWidth = 1;
};
closed = 1;
nodes = (
(186,12,o),
(257,131,o),
(257,131,c),
(502,613,l),
(372,475,l),
(115,0,l)
);
},
{
attr = {
fill = 1;
strokeWidth = 1;
};
closed = 1;
nodes = (
(198,154,o),
(435,467,o),
(491,582,c),
(506,613,o),
(514,633,o),
(514,633,c),
(32,633,l),
(0,530,l),
(289,534,l),
(289,534,o),
(91,324,o),
(190,166,c)
);
}
);
width = 1135;
},
{
layerId = m002;
shapes = (
{
attr = {
fill = 1;
strokeWidth = 1;
};
closed = 1;
nodes = (
(265,0,l),
(360,0,o),
(451,40,o),
(514,107,c),
(799,407,l),
(847,459,o),
(918,487,o),
(985,483,c),
(1076,479,l),
(1135,605,l),
(989,613,l),
(926,617,o),
(862,589,o),
(819,542,c),
(443,119,l),
(403,75,o),
(344,47,o),
(285,47,c),
(143,47,l),
(116,0,l)
);
},
{
attr = {
fill = 1;
strokeWidth = 1;
};
closed = 1;
nodes = (
(186,12,o),
(257,131,o),
(257,131,c),
(502,613,l),
(372,475,l),
(115,0,l)
);
},
{
attr = {
fill = 1;
strokeWidth = 1;
};
closed = 1;
nodes = (
(198,154,o),
(435,467,o),
(491,582,c),
(506,613,o),
(514,633,o),
(514,633,c),
(32,633,l),
(0,530,l),
(289,534,l),
(289,534,o),
(91,324,o),
(190,166,c)
);
}
);
width = 1135;
}
);
unicode = 86;
},
{
glyphname = W;
lastChange = "2024-10-27 19:28:32 +0000";
layers = (
{
layerId = m01;
shapes = (
{
attr = {
fill = 1;
strokeWidth = 1;
};
closed = 1;
nodes = (
(254,612,o),
(0,695,o),
(0,695,c),
(0,695,o),
(376,772,o),
(332,388,c),
(320,292,o),
(287,38,o),
(436,73,c),
(589,109,o),
(729,631,o),
(729,631,c),
(782,687,l),
(734,545,o),
(633,68,o),
(406,12,c),
(246,-21,o),
(175,68,o),
(213,340,c)
);
},
{
attr = {
fill = 1;
strokeWidth = 1;
};
closed = 1;
nodes = (
(745,612,o),
(492,695,o),
(492,695,c),
(492,695,o),
(871,772,o),
(828,388,c),
(816,292,o),
(782,38,o),
(932,73,c),
(1084,109,o),
(1226,631,o),
(1226,631,c),
(1278,687,l),
(1229,545,o),
(1125,68,o),
(902,12,c),
(742,-21,o),
(671,68,o),
(708,340,c)
);
}
);
width = 1278;
},
{
layerId = m002;
shapes = (
{
attr = {
fill = 1;
strokeWidth = 1;
};
closed = 1;
nodes = (
(254,612,o),
(0,695,o),
(0,695,c),
(0,695,o),
(376,772,o),
(332,388,c),
(320,292,o),
(287,38,o),
(436,73,c),
(589,109,o),
(729,631,o),
(729,631,c),
(782,687,l),
(734,545,o),
(633,68,o),
(406,12,c),
(246,-21,o),
(175,68,o),
(213,340,c)
);
},
{
attr = {
fill = 1;
strokeWidth = 1;
};
closed = 1;
nodes = (
(745,612,o),
(492,695,o),
(492,695,c),
(492,695,o),
(871,772,o),
(828,388,c),
(816,292,o),
(782,38,o),
(932,73,c),
(1084,109,o),
(1226,631,o),
(1226,631,c),
(1278,687,l),
(1229,545,o),
(1125,68,o),
(902,12,c),
(742,-21,o),
(671,68,o),
(708,340,c)
);
}
);
width = 1278;
}
);
unicode = 87;
},
{
glyphname = X;
lastChange = "2024-10-27 19:28:32 +0000";
layers = (
{
layerId = m01;
shapes = (
{
attr = {
fill = 1;
strokeWidth = 1;
};
closed = 1;
nodes = (
(241,5,o),
(313,36,o),
(363,89,c),
(783,568,l),
(827,617,o),
(895,648,o),
(966,648,c),
(1104,648,l),
(1141,701,l),
(987,701,l),
(881,701,o),
(777,657,o),
(701,580,c),
(381,241,l),
(327,183,o),
(252,151,o),
(170,157,c),
(72,160,l),
(0,17,l),
(166,8,l)
);
},
{
attr = {
fill = 1;
strokeWidth = 1;
};
closed = 1;
nodes = (
(1059,31,l),
(875,116,l),
(818,143,o),
(769,188,o),
(729,236,c),
(395,732,l),
(335,732,l),
(752,36,l),
(1073,-112,l)
);
}
);
width = 1141;
},
{
layerId = m002;
shapes = (
{
attr = {
fill = 1;
strokeWidth = 1;
};
closed = 1;
nodes = (
(241,5,o),
(313,36,o),
(363,89,c),
(783,568,l),
(827,617,o),
(895,648,o),
(966,648,c),
(1104,648,l),
(1141,701,l),
(987,701,l),
(881,701,o),
(777,657,o),
(701,580,c),
(381,241,l),
(327,183,o),
(252,151,o),
(170,157,c),
(72,160,l),
(0,17,l),
(166,8,l)
);
},
{
attr = {
fill = 1;
strokeWidth = 1;
};
closed = 1;
nodes = (
(1059,31,l),
(875,116,l),
(818,143,o),
(769,188,o),
(729,236,c),
(395,732,l),
(335,732,l),
(752,36,l),
(1073,-112,l)
);
}
);
width = 1141;
}
);
unicode = 88;
},
{
glyphname = Y;
lastChange = "2024-10-27 19:28:32 +0000";
layers = (
{
layerId = m01;
shapes = (
{
attr = {
fill = 1;
strokeWidth = 1;
};
closed = 1;
nodes = (
(212,0,l),
(331,0,o),
(437,81,o),
(468,198,c),
(582,537,l),
(596,593,o),
(632,635,o),
(690,635,c),
(766,635,l),
(788,699,l),
(376,696,l),
(354,660,l),
(487,660,l),
(532,660,o),
(526,618,o),
(518,596,c),
(370,248,l),
(340,181,o),
(273,134,o),
(200,128,c),
(58,120,l),
(3,0,l)
);
},
{
attr = {
fill = 1;
strokeWidth = 1;
};
closed = 1;
nodes = (
(473,334,o),
(551,688,o),
(587,796,c),
(548,754,l),
(548,754,o),
(443,362,o),
(328,337,c),
(217,309,o),
(242,498,o),
(251,571,c),
(284,857,o),
(0,799,o),
(0,799,c),
(0,799,o),
(189,740,o),
(161,537,c),
(134,334,o),
(187,264,o),
(306,290,c)
);
}
);
width = 788;
},
{
layerId = m002;
shapes = (
{
attr = {
fill = 1;
strokeWidth = 1;
};
closed = 1;
nodes = (
(212,0,l),
(331,0,o),
(437,81,o),
(468,198,c),
(582,537,l),
(596,593,o),
(632,635,o),
(690,635,c),
(766,635,l),
(788,699,l),
(376,696,l),
(354,660,l),
(487,660,l),
(532,660,o),
(526,618,o),
(518,596,c),
(370,248,l),
(340,181,o),
(273,134,o),
(200,128,c),
(58,120,l),
(3,0,l)
);
},
{
attr = {
fill = 1;
strokeWidth = 1;
};
closed = 1;
nodes = (
(473,334,o),
(551,688,o),
(587,796,c),
(548,754,l),
(548,754,o),
(443,362,o),
(328,337,c),
(217,309,o),
(242,498,o),
(251,571,c),
(284,857,o),
(0,799,o),
(0,799,c),
(0,799,o),
(189,740,o),
(161,537,c),
(134,334,o),
(187,264,o),
(306,290,c)
);
}
);
width = 788;
}
);
unicode = 89;
},
{
glyphname = Z;
lastChange = "2024-10-27 19:28:32 +0000";
layers = (
{
layerId = m01;
shapes = (
{
attr = {
fill = 1;
strokeWidth = 1;
};
closed = 1;
nodes = (
(276,529,l),
(11,691,l),
(117,751,l),
(272,660,l),
(319,633,o),
(379,616,o),
(434,616,c),
(964,616,l),
(992,573,l)
);
},
{
attr = {
fill = 1;
strokeWidth = 1;
};
closed = 1;
nodes = (
(851,562,l),
(791,562,o),
(732,539,o),
(693,491,c),
(316,71,l),
(273,20,o),
(209,-3,o),
(147,1,c),
(0,4,l),
(60,135,l),
(151,131,l),
(218,123,o),
(289,151,o),
(336,202,c),
(622,502,l),
(685,573,o),
(776,616,o),
(871,616,c),
(1005,616,l),
(978,562,l)
);
},
{
attr = {
fill = 1;
strokeWidth = 1;
};
closed = 1;
nodes = (
(44,4,o),
(269,286,o),
(582,115,c),
(894,-56,o),
(1013,206,o),
(1013,206,c),
(1013,206,o),
(1005,-241,o),
(618,4,c),
(229,250,o),
(44,4,o),
(44,4,c)
);
}
);
width = 1013;
},
{
layerId = m002;
shapes = (
{
attr = {
fill = 1;
strokeWidth = 1;
};
closed = 1;
nodes = (
(276,529,l),
(11,691,l),
(117,751,l),
(272,660,l),
(319,633,o),
(379,616,o),
(434,616,c),
(964,616,l),
(992,573,l)
);
},
{
attr = {
fill = 1;
strokeWidth = 1;
};
closed = 1;
nodes = (
(851,562,l),
(791,562,o),
(732,539,o),
(693,491,c),
(316,71,l),
(273,20,o),
(209,-3,o),
(147,1,c),
(0,4,l),
(60,135,l),
(151,131,l),
(218,123,o),
(289,151,o),
(336,202,c),
(622,502,l),
(685,573,o),
(776,616,o),
(871,616,c),
(1005,616,l),
(978,562,l)
);
},
{
attr = {
fill = 1;
strokeWidth = 1;
};
closed = 1;
nodes = (
(44,4,o),
(269,286,o),
(582,115,c),
(894,-56,o),
(1013,206,o),
(1013,206,c),
(1013,206,o),
(1005,-241,o),
(618,4,c),
(229,250,o),
(44,4,o),
(44,4,c)
);
}
);
width = 1013;
}
);
unicode = 90;
},
{
glyphname = D.001;
lastChange = "2024-10-28 01:59:03 +0000";
layers = (
{
layerId = m01;
shapes = (
{
attr = {
fill = 1;
strokeWidth = 1;
};
closed = 1;
nodes = (
(199,0,o),
(220,40,o),
(239,75,cs),
(261,115,l),
(453,-230,o),
(760,327,o),
(760,327,c),
(726,327,l),
(789,430,o),
(843,548,o),
(791,630,cs),
(727,730,o),
(643,718,o),
(526,563,cs),
(502,531,o),
(475,509,o),
(449,495,c),
(519,637,l),
(401,637,l),
(317,470,l),
(270,476,o),
(237,493,o),
(237,493,c),
(237,493,o),
(259,459,o),
(296,429,c),
(116,73,ls),
(102,46,o),
(89,37,o),
(71,37,cs),
(21,37,o),
(-30,36,o),
(-80,36,c),
(-63,0,l),
(11,0,o),
(85,0,o),
(159,0,cs)
);
},
{
attr = {
fill = 1;
strokeWidth = 1;
};
closed = 1;
nodes = (
(394,385,l),
(443,380,o),
(500,401,o),
(560,476,cs),
(607,533,o),
(716,677,o),
(774,584,cs),
(808,530,o),
(753,416,o),
(698,327,c),
(657,327,l),
(405,-176,o),
(323,78,o),
(300,194,c)
);
}
);
width = 757;
},
{
background = {
shapes = (
{
attr = {
strokeWidth = 0.25;
};
closed = 1;
nodes = (
(1311,800,l),
(727,-206,l),
(-279,-206,l),
(300,800,l)
);
},
{
attr = {
strokeWidth = 0.25;
};
closed = 0;
nodes = (
(-247,-147,l),
(765,-147,l)
);
},
{
attr = {
strokeWidth = 0.25;
};
closed = 0;
nodes = (
(-209,-82,l),
(798,-82,l)
);
},
{
attr = {
strokeWidth = 0.25;
};
closed = 0;
nodes = (
(-171,-17,l),
(836,-17,l)
);
},
{
attr = {
strokeWidth = 0.25;
};
closed = 0;
nodes = (
(-139,42,l),
(874,42,l)
);
},
{
attr = {
strokeWidth = 0.25;
};
closed = 0;
nodes = (
(-101,107,l),
(912,107,l)
);
},
{
attr = {
strokeWidth = 0.25;
};
closed = 0;
nodes = (
(-63,173,l),
(944,173,l)
);
},
{
attr = {
strokeWidth = 0.25;
};
closed = 0;
nodes = (
(-25,233,l),
(982,233,l)
);
},
{
attr = {
strokeWidth = 0.25;
};
closed = 0;
nodes = (
(7,298,l),
(1020,298,l)
);
},
{
attr = {
strokeWidth = 0.25;
};
closed = 0;
nodes = (
(45,362,l),
(1058,362,l)
);
},
{
attr = {
strokeWidth = 0.25;
};
closed = 0;
nodes = (
(84,422,l),
(1090,422,l)
);
},
{
attr = {
strokeWidth = 0.25;
};
closed = 0;
nodes = (
(122,487,l),
(1128,487,l)
);
},
{
attr = {
strokeWidth = 0.25;
};
closed = 0;
nodes = (
(154,551,l),
(1166,551,l)
);
},
{
attr = {
strokeWidth = 0.25;
};
closed = 0;
nodes = (
(192,611,l),
(1198,611,l)
);
},
{
attr = {
strokeWidth = 0.25;
};
closed = 0;
nodes = (
(230,676,l),
(1236,676,l)
);
},
{
attr = {
strokeWidth = 0.25;
};
closed = 0;
nodes = (
(262,735,l),
(1274,735,l)
);
},
{
attr = {
strokeWidth = 0.25;
};
closed = 0;
nodes = (
(1247,800,l),
(662,-206,l)
);
},
{
attr = {
strokeWidth = 0.25;
};
closed = 0;
nodes = (
(1122,800,l),
(538,-206,l)
);
},
{
attr = {
strokeWidth = 0.25;
};
closed = 0;
nodes = (
(1058,800,l),
(473,-206,l)
);
},
{
attr = {
strokeWidth = 0.25;
};
closed = 0;
nodes = (
(993,800,l),
(414,-206,l)
);
},
{
attr = {
strokeWidth = 0.25;
};
closed = 0;
nodes = (
(933,800,l),
(349,-206,l)
);
},
{
attr = {
strokeWidth = 0.25;
};
closed = 0;
nodes = (
(869,800,l),
(284,-206,l)
);
},
{
attr = {
strokeWidth = 0.25;
};
closed = 0;
nodes = (
(804,800,l),
(225,-206,l)
);
},
{
attr = {
strokeWidth = 0.25;
};
closed = 0;
nodes = (
(743,800,l),
(160,-206,l)
);
},
{
attr = {
strokeWidth = 0.25;
};
closed = 0;
nodes = (
(678,800,l),
(95,-206,l)
);
},
{
attr = {
strokeWidth = 0.25;
};
closed = 0;
nodes = (
(613,800,l),
(34,-206,l)
);
},
{
attr = {
strokeWidth = 0.25;
};
closed = 0;
nodes = (
(554,800,l),
(-31,-206,l)
);
},
{
attr = {
strokeWidth = 0.25;
};
closed = 0;
nodes = (
(489,800,l),
(-90,-206,l)
);
},
{
attr = {
strokeWidth = 0.25;
};
closed = 0;
nodes = (
(424,800,l),
(-155,-206,l)
);
},
{
attr = {
strokeWidth = 0.25;
};
closed = 0;
nodes = (
(365,800,l),
(-220,-206,l)
);
}
);
};
layerId = m002;
shapes = (
{
attr = {
fill = "1";
strokeWidth = 1;
};
closed = 1;
nodes = (
(270,1,o),
(294,19,o),
(325,75,cs),
(347,115,l),
(563,-260,o),
(846,322,o),
(846,322,c),
(863,365,l),
(953,566,o),
(880,699,o),
(765,699,cs),
(745,699,o),
(647,700,o),
(561,563,cs),
(523,503,o),
(522,494,o),
(565,495,c),
(691,700,l),
(484,700,l),
(307,700,l),
(288,667,o),
(276,647,o),
(276,647,c),
(386,647,o),
(461,653,o),
(437,613,c),
(123,84,ls),
(105,54,o),
(91,48,o),
(71,50,cs),
(41,53,o),
(95,126,o),
(120,173,c),
(54,173,l),
(-44,0,o),
(-19,-9,o),
(230,0,cs)
);
},
{
attr = {
fill = "1";
strokeWidth = 1;
};
closed = 1;
nodes = (
(502,385,l),
(515,405,o),
(507,395,o),
(557,476,cs),
(604,553,o),
(638,611,o),
(699,612,cs),
(747,613,o),
(776,549,o),
(692,385,c),
(659,327,l),
(407,-124,o),
(391,178,o),
(390,194,c)
);
}
);
width = 904;
}
);
},
